<svg xmlns="http://www.w3.org/2000/svg" xmlns:xlink="http://www.w3.org/1999/xlink" width="1070.986" height="722.153" viewBox="0 0 1070.986 722.153"><defs><linearGradient id="a" x1="0.5" x2="0.5" y2="1" gradientUnits="objectBoundingBox"><stop offset="0" stop-color="#6c63ff"/><stop offset="1" stop-color="#c77cf1"/></linearGradient><linearGradient id="c" x1="0.5" y1="1" x2="0.5" gradientUnits="objectBoundingBox"><stop offset="0" stop-color="gray" stop-opacity="0.251"/><stop offset="0.54" stop-color="gray" stop-opacity="0.122"/><stop offset="1" stop-color="gray" stop-opacity="0.102"/></linearGradient><linearGradient id="d" x1="0.5" x2="0.5" y2="1" gradientUnits="objectBoundingBox"><stop offset="0" stop-color="#fddb71"/><stop offset="1" stop-color="#ee7a37"/></linearGradient></defs><g transform="translate(0 0)"><path d="M1113.562,615.644c0,42.817-235.693,200.49-530.049,200.49S57.45,648.106,57.45,605.289s231.708,55.768,526.063,55.768S1113.562,572.788,1113.562,615.644Z" transform="translate(-45.501 -93.981)" fill="url(#a)"/><path d="M1116.053,582.12c-.647,17.795-10.557,35.493-28.641,47.99-19.184,13.24-44.911,20.207-71.324,24.656-4.13.695-8.28,1.322-12.42,1.93-2.113.289-4.217.579-6.311.849-58.8,7.72-118.831,9.2-178.584,10.615-62.5,1.544-125.065,3.069-187.636,3.86l-12.41.145c-94.937,1.023-189.836.164-284.426-5.221-29.355-1.66-59-3.86-88.105-7.566q-6.224-.762-12.41-1.669c-38.6-5.529-76.052-14.012-110.175-27.783a245.553,245.553,0,0,1-23.6-10.9C78.575,607.645,60.5,593.257,51.555,575.6a60.911,60.911,0,0,1-6.176-33.5,78.378,78.378,0,0,1,2.152-12.42A110.666,110.666,0,0,1,59.719,501c13.935-23.565,34.866-44.689,52.911-66.817,38.523-47.16,63.613-106.749,28.062-155.086-10.2-13.886-24.945-26.055-33.254-40.578a65.35,65.35,0,0,1-8.145-25.5,91.74,91.74,0,0,1-.511-12.42,172.282,172.282,0,0,1,3.619-28.8c5.79-29.645,16.608-61.606,50.016-80.1,22.8-12.622,51.869-16.54,81.34-15.8q6.2.145,12.41.579c11.3.743,22.533,2.113,33.38,3.86,67.01,10.7,128.857,33.061,191.293,53.249,47.536,15.363,96.771,29.732,147.858,36.583,4.13.55,8.26,1.062,12.41,1.505,11.976,1.312,24.058,2.181,36.236,2.538,60.612,1.737,131.328-11.387,171.578-45.471,38.88-32.945,111.8-35.6,164.717-15.923l.791.3q5.973,2.277,11.58,4.9c39,18.335,65.119,49.736,68.8,82.595a71.688,71.688,0,0,1,.328,12.294.508.508,0,0,1,0,.125c-2.528,40.424-35.57,74.373-69.123,108.38-4.15,4.2-8.309,8.4-12.42,12.622-10.885,11.175-21.433,22.436-30.581,34.026a159.574,159.574,0,0,0-11.5,16.5,106.583,106.583,0,0,0-8.174,16.617,69.115,69.115,0,0,0-4.506,18.625,48.7,48.7,0,0,0,4.825,26.634l.087.193c8.955,17.756,27.908,30.34,49.852,41.5,4.043,2.065,8.2,4.072,12.42,6.06,23.8,11.233,49.437,21.664,68.93,35.532a103.348,103.348,0,0,1,14.649,12.352,74.669,74.669,0,0,1,5.172,5.954,52.246,52.246,0,0,1,11.271,31.546C1116.053,579.882,1116.053,581.541,1116.053,582.12Z" transform="translate(-45.067 -75.83)" fill="url(#a)"/><path d="M1087.139,217.454a.539.539,0,0,1,0,.125H101.24a91.88,91.88,0,0,1-.511-12.42h986.082a71.676,71.676,0,0,1,.328,12.294Z" transform="translate(-47.014 -80.356)" fill="#3f3d56"/><circle cx="1.554" cy="1.554" r="1.554" transform="translate(272.241 67.743)" fill="#e7effd"/><circle cx="1.554" cy="1.554" r="1.554" transform="translate(344.674 92.061)" fill="#e7effd"/><path d="M1118.045,590.65v1.718c-.492,17.93-10.422,35.811-28.641,48.4-19.184,13.24-44.911,20.207-71.324,24.656-4.13.695-8.28,1.322-12.42,1.93-2.113.289-4.217.579-6.311.849-14.475,1.93-29.027,3.407-43.628,4.642-19.59,1.66-39.276,2.808-58.981,3.657-25.3,1.11-50.653,1.737-75.975,2.364-49.5,1.216-99.029,2.432-148.611,3.271l-17.592.289-21.462.289-12.41.145c-78.166.83-156.215.405-234.13-2.779q-7.778-.309-15.527-.676-17.37-.762-34.74-1.766c-23.208-1.312-46.6-2.972-69.741-5.433q-9.206-.965-18.335-2.133-6.224-.762-12.41-1.669-6.89-.965-13.722-2.1c-33.775-5.52-66.383-13.51-96.452-25.688A250.277,250.277,0,0,1,102,629.674V459.833c4.285-4.97,8.54-9.94,12.632-14.967,4.922-6.041,9.65-12.265,13.993-18.654h93.413V368.65H386.571V495.2H654.563V394.84H963.751a108.087,108.087,0,0,0-8.1,16.067v.54H955.3a69.115,69.115,0,0,0-4.506,18.625,48.7,48.7,0,0,0,4.825,26.634v.405l.087.193c8.955,17.756,27.908,30.34,49.852,41.5,4.043,2.065,8.2,4.072,12.42,6.06,23.556,11.117,48.935,21.462,68.351,35.126l.579.405a103.839,103.839,0,0,1,14.292,11.947c.145.135.27.27.4.405a74.63,74.63,0,0,1,5.172,5.954,52.312,52.312,0,0,1,11.271,31.141C1118.045,590.129,1118.045,590.389,1118.045,590.65Z" transform="translate(-47.06 -86.077)" fill="#6c63ff"/><path d="M1118.045,590.65v1.718c-.492,17.93-10.422,35.811-28.641,48.4-19.184,13.24-44.911,20.207-71.324,24.656-4.13.695-8.28,1.322-12.42,1.93-2.113.289-4.217.579-6.311.849-14.475,1.93-29.027,3.407-43.628,4.642-19.59,1.66-39.276,2.808-58.981,3.657-25.3,1.11-50.653,1.737-75.975,2.364-49.5,1.216-99.029,2.432-148.611,3.271l-17.592.289-21.462.289-12.41.145c-78.166.83-156.215.405-234.13-2.779q-7.778-.309-15.527-.676-17.37-.762-34.74-1.766c-23.208-1.312-46.6-2.972-69.741-5.433q-9.206-.965-18.335-2.133-6.224-.762-12.41-1.669-6.89-.965-13.722-2.1c-33.775-5.52-66.383-13.51-96.452-25.688A250.277,250.277,0,0,1,102,629.674V459.833c4.285-4.97,8.54-9.94,12.632-14.967,4.922-6.041,9.65-12.265,13.993-18.654h93.413V368.65H386.571V495.2H654.563V394.84H963.751a108.087,108.087,0,0,0-8.1,16.067v.54H955.3a69.115,69.115,0,0,0-4.506,18.625,48.7,48.7,0,0,0,4.825,26.634v.405l.087.193c8.955,17.756,27.908,30.34,49.852,41.5,4.043,2.065,8.2,4.072,12.42,6.06,23.556,11.117,48.935,21.462,68.351,35.126l.579.405a103.839,103.839,0,0,1,14.292,11.947c.145.135.27.27.4.405a74.63,74.63,0,0,1,5.172,5.954,52.312,52.312,0,0,1,11.271,31.141C1118.045,590.129,1118.045,590.389,1118.045,590.65Z" transform="translate(-47.06 -86.077)" opacity="0.3"/><rect width="27.599" height="18.625" transform="translate(636.83 325.323)" opacity="0.4"/><rect width="27.599" height="18.625" transform="translate(636.83 382.239)" opacity="0.4"/><rect width="27.599" height="18.625" transform="translate(636.83 439.145)" opacity="0.4"/><rect width="27.599" height="18.625" transform="translate(636.83 496.061)" opacity="0.4"/><rect width="27.599" height="18.625" transform="translate(636.83 552.978)" opacity="0.4"/><rect width="27.599" height="18.625" transform="translate(238.784 303.591)" opacity="0.4"/><rect width="27.599" height="18.625" transform="translate(238.784 345.347)" fill="#6c63ff"/><rect width="27.599" height="18.625" transform="translate(238.784 387.093)" opacity="0.4"/><rect width="27.599" height="18.625" transform="translate(238.784 428.849)" opacity="0.4"/><rect width="27.599" height="18.625" transform="translate(238.784 470.595)" opacity="0.4"/><rect width="27.599" height="18.625" transform="translate(238.784 512.351)" opacity="0.4"/><rect width="27.599" height="18.625" transform="translate(238.784 554.097)" opacity="0.4"/><rect width="137.977" height="16.646" transform="translate(394.69 430.827)" opacity="0.4"/><rect width="137.977" height="16.646" transform="translate(394.69 483.941)" opacity="0.4"/><rect width="137.977" height="16.646" transform="translate(394.69 537.065)" opacity="0.4"/><path d="M651.91,175.1V675.46l-12.41.145V173.58Q645.7,174.42,651.91,175.1Z" transform="translate(-65.869 -79.251)" fill="#3f3d56"/><path d="M1099.611,558.55H45.39a78.378,78.378,0,0,1,2.152-12.42H1085a102.168,102.168,0,0,1,14.61,12.42Z" transform="translate(-45.079 -92.287)" fill="#3f3d56"/><path d="M337.142,229.724h-2.374V227.35h-.425v2.374H331.97v.425h2.374v2.374h.425v-2.374h2.374Z" transform="translate(-11.576 -7.956)" fill="#e7effd"/><path d="M395.412,168.644h-2.374V166.27H392.6v2.374H390.24v.434H392.6v2.364h.434v-2.364h2.374Z" transform="translate(-13.615 -5.818)" fill="#e7effd"/><circle cx="1.554" cy="1.554" r="1.554" transform="translate(376.625 313)" fill="#e7effd"/><circle cx="1.554" cy="1.554" r="1.554" transform="translate(642.562 261.102)" fill="#e7effd"/><path d="M747,605.151s-33.109,8.01-46.214,23c-4.391,5.008-10.9,8.617-17.631,11.194v-22.61c7.575-12.719,15.208-26.866,15.208-26.866.347-.695,3.107-10.451,3.107-10.451,6.215-4.883-.347-21.944-.347-21.944s3.8-10.8,1.727-12.892-.347-7.662,1.38-10.1,1.38-5.578,1.38-7.662-2.76-5.23-7.247-6.967.347-4.526,3.107-5.23,3.455-7.315.347-10.8.347-5.568,2.065-9.4-5.549-3.136-5.549-3.136V456.058h0s-2.075-11.493-4.14-31.7-10.007-22.292-10.007-22.292a90.889,90.889,0,0,1-12.42-4.883,85.063,85.063,0,0,0-13.1-4.873s-9.312,0-16.907-2.335-11.532-2.5-11.532-2.5l-1.245-.618a45.191,45.191,0,0,1-20.931-22.2c-.212-.483-.405-.965-.6-1.428a48.717,48.717,0,0,0,5.51-7.315v4.034h0v.087c5.5-9.718,21.462-11.937,22.977-23.035a11.561,11.561,0,0,0,.106-1.525v-1.187c-.2-3.1-1.264-6.186-1.467-9.312a17.866,17.866,0,0,1,0-2.692v.058c.714-8.617,7.209-16.116,10.181-24.482a29.347,29.347,0,0,0,1.554-6.967v-.068c.077-.714.125-1.438.145-2.162v-2.036a32.6,32.6,0,0,0-10.76-23.546c-5.5-4.777-12.767-7.778-16.579-14.022-1.776-2.9-2.644-6.33-4.584-9.129-3.648-5.288-10.345-7.44-16.685-8.2s-12.854-.511-18.914-2.5c-4.3-1.409-8.2-3.908-12.545-5.163a24,24,0,0,0-25.775,9.293c-2.287,3.339-3.783,7.334-6.871,9.94-6.321,5.346-17.042,3.03-22.581,9.187-3.04,3.387-3.387,8-3.02,12.709v.174a10.688,10.688,0,0,0,.106,1.09v.511a1.592,1.592,0,0,0,.068.55c.193,1.689.434,3.368.647,4.989a6.483,6.483,0,0,0,.087.743l.174,1.515a10.578,10.578,0,0,0,.1,1.1c.039.367.068.965.1,1.37a9.543,9.543,0,0,0,.068,1.081,74.461,74.461,0,0,1-7.913,37.153c-5.221,10.239-12.979,19.676-14.33,31.112a33.518,33.518,0,0,0-.154,5.645v.666c0,.222.058.676.087,1.013s.077.782.125,1.168a5.238,5.238,0,0,0,.087.666c.068.511.145,1.023.232,1.544l.058.328c1.37,7.8,4.478,15.44,6.128,23.315a63.056,63.056,0,0,1,1.235,8.811.125.125,0,0,0,0,.058c.058.965.106,1.882.135,2.827v3.86a61.248,61.248,0,0,1-8.038,2.47c-4.825.695-18.982,13.24-17.949,16.405s-6.33,25.09-6.533,25.756h0l-11.58,80.1s-6.147,5.925-4.227,9.756-.376,10.451-.376,10.451-10.383,4.526-8.077,7.315,1.255,8.01-.328,11.493-4.178,9.756,0,10.8.714,14.639.714,14.639,14.562-1.679,13.51,6.967c-.347,2.75,10.181,10.316,14.572,13.346v41.63a127.225,127.225,0,0,1-17.245-5.858c-8.965-4.179-59.329-12.188-70.368,11.85s15.18,56.086,21.732,59.57c0,0,6.215,4.873,7.595,7.315s9.312,3.136,9.312,3.136,8.28,3.86,10.345,5.916c1.525,1.544,14.137,5.549,29.085,8.685h0s-12.072,27.792,7.624,25.505,29.288-11.985,43.174-11.985c5.549,0,15.855-.782,26.229-1.708a69.706,69.706,0,0,1,7.72,1.824,99.206,99.206,0,0,0,17.93,3.86s15.527,8.357,23.807,6.263a5.261,5.261,0,0,0,1.872-.965h.193c1.505-.376,3.214-1.93,4.989-4.275,10.354,1.062,22.2,2.567,26.6,4.285,8.579,3.31,69.944-1.274,69.944-1.274s39.642.782,51,4.217,7.324-35.078-13.636-39.411a86,86,0,0,0-16.993-1.679,38.119,38.119,0,0,0,3.966-4.825c7.546-.685,12.545-1.11,12.545-1.11s20-9.756,31.392-15.681a71.625,71.625,0,0,0,19.3-15.324s10-6.272,14.137-8.685,6.205-10.451,6.205-10.451C826.678,595.733,747,605.151,747,605.151ZM657.174,516v-3.513c1.119.791.955,2.036,0,3.5Zm.328,24.637c.84,1.1,1.65,2.1,2.229,2.9,2.229,2.9-1.8,4.246-1.515,9.042.068,1.071.164,2.567.261,4.227h0c-.425-6.919-.772-12.613-.975-16.174Z" transform="translate(-56.667 -80.989)" fill="url(#c)"/><path d="M477.955,665.588s-19.3-4.487-28.284-8.627S390.342,644.889,379.3,668.7s15.18,55.526,21.732,58.981S471.4,683.856,471.4,683.856l50.335,21.23,9.65-32.945Z" transform="translate(-56.67 -96.003)" fill="#65617d"/><rect width="219.124" height="76.226" rx="36.83" transform="translate(442.583 576.138)" fill="#65617d"/><path d="M722.824,710.968a38.031,38.031,0,0,1-6.35,21.076,38.6,38.6,0,0,1-4.825,5.887A37.992,37.992,0,0,1,684.7,749.1H541.818a38.118,38.118,0,1,1,0-76.235H684.706a38.118,38.118,0,0,1,38.118,38.108Z" transform="translate(-61.116 -96.722)" opacity="0.1"/><path d="M601.869,714.66s-21.973,5.645-39.9,5.394-101.8,34.6-101.8,34.6-12.072,27.522,7.624,25.245,29.288-11.831,43.174-11.831,57.572-4.825,57.572-4.825l42.036-31.054Z" transform="translate(-59.465 -98.185)" fill="#fbbebe"/><path d="M617.638,441.96l-39.411,7.768-2.557.511s-31.16-8.28-32.193-8.975-29.317-38.8-29.317-38.8,14.3.154,25.534-6.321c.405-.232.8-.483,1.2-.724A24.9,24.9,0,0,0,551.506,382.4c.2-.569.376-1.158.54-1.776,1.2-4.613,1.274-10.2-.328-16.965-3.86-16.087,5.018-20.516,16.781-20.13,16.994.56,40.125,11.165,40.125,11.165a47.161,47.161,0,0,0,3.638,15.73c.183.463.386.965.6,1.409a44.912,44.912,0,0,0,20.931,21.954l1.245.618c1.254.6,2.577,1.168,3.947,1.679C669.034,407.47,617.638,441.96,617.638,441.96Z" transform="translate(-61.483 -85.197)" fill="#fbbebe"/><path d="M614.23,371.833A49.708,49.708,0,0,1,552.875,382.4c1.7-4.941,2.017-11.088.212-18.74-9.312-39.324,56.935-8.965,56.935-8.965A47.8,47.8,0,0,0,614.23,371.833Z" transform="translate(-62.813 -85.197)" opacity="0.1"/><path d="M625.767,334.858a49.332,49.332,0,0,1-7.527,26.277,48.629,48.629,0,0,1-5.51,7.247A49.389,49.389,0,0,1,579.09,384.4c-.965.068-2,.1-3,.1a49.669,49.669,0,1,1,49.669-49.669Z" transform="translate(-61.912 -83.155)" fill="#fbbebe"/><path d="M617.638,443.786l-39.411,7.768-2.557.511s-31.16-8.28-32.193-8.975-29.317-38.8-29.317-38.8,14.3.154,25.534-6.321c.405-.232.8-.483,1.2-.724,3.57,3.86,15.257,14.774,33.621,14.7a48.566,48.566,0,0,0,7.045-.511c5.539-.849,11.127-1.4,16.7-1.93,10.683-1.119,27.02-4.362,35.6-13.8l1.245.618c1.254.6,2.577,1.168,3.947,1.679C669.034,409.3,617.638,443.786,617.638,443.786Z" transform="translate(-61.483 -87.024)" opacity="0.1"/><path d="M660.445,544.524c.338,7.595,5.867,93.133,5.867,93.133H494.184l1.168-53.857.965-43.078.309-14.137,1.38-48.974-4.989-4.4L465.9,449.316h0c.2-.637,7.556-22.436,6.533-25.505s13.114-15.517,17.949-16.212a62.843,62.843,0,0,0,8.087-2.461c8.135-2.9,18.991-7.064,20.188-6.408,1.689.907,18.615-.666,19.3-.733h0s12.487,16.145,34.8,16.048a47.281,47.281,0,0,0,7.016-.56c5.539-.849,11.127-1.4,16.7-1.978,11.223-1.168,28.67-4.69,36.844-15.247,0,0,3.947.164,11.532,2.47s16.907,2.316,16.907,2.316a85.8,85.8,0,0,1,13.1,4.825,91.674,91.674,0,0,0,12.42,4.825s7.932,2.065,10.007,22.07,4.169,31.392,4.169,31.392L660.445,499.68S660.107,536.9,660.445,544.524Z" transform="translate(-59.794 -87.043)" fill="#fddb71"/><path d="M420.575,534.847l6.031,9.66,22.591,7.961,15.527-28.313-14.311-9.66-22.938-8.965-13.1,7.585Z" transform="translate(-14.459 -17.69)" fill="#fbbebe"/><path d="M665.6,659.594s32.077-2.413,45.191-17.245S757,619.585,757,619.585s79.681-9.312,48.25,61.056c0,0-2.065,7.932-6.2,10.345s-14.137,8.627-14.137,8.627L662.52,688.921Z" transform="translate(-66.674 -94.844)" fill="#65617d"/><path d="M726.119,711.319a38.031,38.031,0,0,1-6.35,21.076c-20.593,1.824-66.2,6.109-75.743,8.772-11.725,3.252-35.454-2.413-38.05-3.049l-.241-.058s-4.574-13.877-6.755-22.755c-.965-4.034-1.477-7.035-.84-7.257,2.075-.685,21.047-5.867,20.7-2.9S675.775,682.9,675.775,682.9l1.756,22.079C683.35,711.638,726.119,701.737,726.119,711.319Z" transform="translate(-64.411 -97.074)" opacity="0.1"/><path d="M785.176,692.906l-2.413,8.975a71.5,71.5,0,0,1-19.3,15.17c-11.387,5.867-31.392,15.527-31.392,15.527s-73.466,6.205-85.886,9.65-38.291-3.107-38.291-3.107-9.65-29.317-7.585-30.012,21.037-5.858,20.7-2.9,56.935-22.253,56.935-22.253Z" transform="translate(-64.487 -97.111)" fill="#65617d"/><path d="M579.92,772.162s36.111,2.519,44.7,5.79,69.944-1.255,69.944-1.255,39.642.772,51,4.169,7.324-34.74-13.636-39.015-50.5,2.017-50.5,2.017-33.331-4.294-37.375-4.825-30.668.241-30.668.241Z" transform="translate(-63.784 -99.032)" fill="#fbbebe"/><path d="M432.87,674.72s47.729,4.294,60.853,12.12Z" transform="translate(-58.638 -96.787)" opacity="0.1"/><path d="M739.483,642.28s-37.375,9.09-52.023,22.465Z" transform="translate(-67.547 -95.652)" opacity="0.1"/><path d="M435.75,663.47c.762.251,21.973,3.03,21.462,5.047S435.75,663.47,435.75,663.47Z" transform="translate(-58.739 -96.394)" opacity="0.1"/><path d="M401.21,717.835l2.76,10.354s6.2,4.825,7.585,7.238,9.312,3.107,9.312,3.107,8.28,3.792,10.355,5.858,24.482,8.627,45.529,11.387,60.014,7.932,68.293,10.692a99.4,99.4,0,0,0,17.939,3.792s15.517,8.28,23.8,6.215S609.2,736.807,609.2,736.807s-54.494-12.757-56.221-16.9-54.156-23.45-54.156-23.45l-31.044.733Z" transform="translate(-57.53 -97.548)" opacity="0.1"/><path d="M399.06,718.266l2.76,10.355s6.215,4.825,7.595,7.238,9.312,3.107,9.312,3.107,8.28,3.792,10.345,5.867,24.492,8.618,45.529,11.377,60.023,7.932,68.3,10.692a99.7,99.7,0,0,0,17.93,3.783s15.527,8.27,23.807,6.2,22.417-39.671,22.417-39.671-54.5-12.757-56.221-16.9S472.188,684.8,472.188,684.8l-24.125-5.52Z" transform="translate(-57.455 -96.947)" fill="#65617d"/><path d="M470.958,447.67l-6.031,3.455-11.58,79.333s-6.147,5.867-4.227,9.65-.376,10.345-.376,10.345-10.383,4.487-8.077,7.247,1.255,7.932-.328,11.377-4.178,9.65,0,10.692.714,14.475.714,14.475,14.562-1.66,13.51,6.89c-.434,3.455,16.463,14.475,16.463,14.475s-19.2-34.837,23.816-30.012l3.7-19.638s3.7-11.059,0-14.475.83-19.831.83-19.831l.811-71.227Z" transform="translate(-58.82 -88.842)" fill="url(#d)"/><path d="M462.44,553.84c.762,1.264,23.99,3.86,25.505,7.981S462.44,553.84,462.44,553.84Z" transform="translate(-59.673 -92.557)" opacity="0.1"/><path d="M454.85,573.949s3.156-9.853,10.615-8.087S454.85,573.949,454.85,573.949Z" transform="translate(-59.407 -92.971)" opacity="0.1"/><path d="M450.67,588.718s5.549-13.134,13.124-12.12S450.67,588.718,450.67,588.718Z" transform="translate(-59.261 -93.352)" opacity="0.1"/><path d="M710.1,588.272l-2.422,14.475s-24.83,45.539-29.317,46.224-28.95-30.349-28.95-30.349l-6.552-30.359,25.795-4.893,11.455-11.319S709.059,574.82,710.1,588.272Z" transform="translate(-65.986 -93.195)" fill="#fbbebe"/><path d="M699.055,459.612l9.312,6.552V501s7.247-.695,5.52,3.107-5.172,5.858-2.065,9.312,2.412,10-.347,10.692-7.585,3.445-3.107,5.172,7.247,4.825,7.247,6.9.347,5.172-1.38,7.585-3.445,7.932-1.38,10.007-1.727,12.757-1.727,12.757,6.562,16.907.347,21.732c0,0-2.76,9.65-3.107,10.345,0,0,4.352-33.573-39.044-19.377,0,0-.8-12.8-1.1-17.534s3.744-6.128,1.515-8.955-7.807-9.322-5.172-11.04,1.727-4.825.685-7.247-4.68-2.412-1.38-5.346,5.259-5.684,3.32-7.064-5.308-5.877-2.625-7.942,2.76-32.077,2.76-32.077S678.365,437.88,699.055,459.612Z" transform="translate(-66.674 -89.05)" fill="url(#d)"/><path d="M695.84,521.272s13.259-3.6,13.693,0S695.84,521.272,695.84,521.272Z" transform="translate(-67.84 -91.362)" opacity="0.1"/><path d="M680.4,531.514s18.181-4.545,20.448-1.013S680.4,531.514,680.4,531.514Z" transform="translate(-67.3 -91.694)" opacity="0.1"/><path d="M676.21,541.494s27.271-3.792,29.037,1.766S676.21,541.494,676.21,541.494Z" transform="translate(-67.153 -92.081)" opacity="0.1"/><path d="M680.4,553.84c1.013.251,26.258,2.017,26.76,6.813S680.4,553.84,680.4,553.84Z" transform="translate(-67.3 -92.557)" opacity="0.1"/><rect width="216.239" height="122.816" rx="10.47" transform="translate(410.256 476.829)" fill="#77eaea"/><circle cx="7.971" cy="7.971" r="7.971" transform="translate(510.404 530.271)" fill="#e7effd"/><path d="M507.72,491.94s20.728,15.845,36.757,3.773C544.477,495.713,517.38,498.174,507.72,491.94Z" transform="translate(-61.257 -90.391)" opacity="0.1"/><path d="M616.48,496.36s20.719,15.836,36.747,3.763C653.227,500.124,626.14,502.594,616.48,496.36Z" transform="translate(-65.063 -90.546)" opacity="0.1"/><path d="M624.167,334.861a49.332,49.332,0,0,1-7.527,26.277c-.415-13.829-3.667-27.667-11.194-39.218-6.89-10.615-27.84-29.134-42.238-23.971a10.2,10.2,0,0,0-6.292,6.755c-1.428,5.423,2.75,7.72,5.433,12a36.776,36.776,0,0,1,5.018,24.781,34.455,34.455,0,0,1-.724,3.435c-2.268,8.511-7.459,18.248-2.1,25.225,3.735,4.825,11.763,6.543,12.854,12.545a7.325,7.325,0,0,1,.1,1.718c-.251,4.063-3.715,7.643-5.23,11.628-1.776,4.7-.772,9.37,1.071,14.089,2.393,6.157,6.215,12.381,7.141,18.885s-1.071,12.545-3.426,18.654c-2.229,5.79-4.825,11.532-5.694,17.563-1.669,11.464,2.538,24.723-4.68,33.775a5.056,5.056,0,0,1-3.156,2.133c-4.622.482-3.86-7.826-7.556-10.615.4,4.825.772,9.862-.965,14.379s-6.311,8.357-11.1,7.595l-1.65-10.837a31.3,31.3,0,0,1-11.484,7.189,83.706,83.706,0,0,1,11.985-32.424c-12.149,5.848-19.233,18.509-25.553,30.417-3.937,7.44-8.019,15.566-6.639,23.874.56,3.387,2.017,6.61,2.335,10.017s-.917,7.392-4.092,8.685c-2.77,1.129-6-.222-8-2.48l-.347-.415c-.193-.251-.376-.511-.55-.772a12.97,12.97,0,0,1-.917-1.64,31.741,31.741,0,0,1-1.93-6.34l-.212-.965c-3.213-14.1-6.108-28.641-3.754-42.9.868-5.25,2.451-10.461,2.258-15.788a28.949,28.949,0,0,0-1.814-8.782c-2.818-7.894-8.241-15.141-11.329-23.093a.685.685,0,0,1-.077-.174c-1.621-4.207-2.422-9.467.579-12.844,1.544-1.747,3.86-2.625,5.79-3.86,6-3.908,8.685-11.329,9.795-18.412a62.612,62.612,0,0,0,.753-9.65c8.135-2.9,18.991-7.064,20.188-6.408,1.689.907,18.615-.666,19.3-.733a25.356,25.356,0,0,0,11.85-13.742c.2-.569.376-1.158.54-1.776a49.669,49.669,0,1,1,73.254-43.724Z" transform="translate(-60.311 -83.158)" opacity="0.1"/><path d="M566.643,340.84c-2.277,8.511-7.459,18.248-2.094,25.235,3.735,4.825,11.763,6.533,12.835,12.545.859,4.825-3.4,8.8-5.115,13.336-4.092,10.837,6.581,21.491,8.2,32.965,1.766,12.449-7.305,23.787-9.11,36.226-1.669,11.464,2.538,24.714-4.68,33.775a5,5,0,0,1-3.156,2.133c-4.622.492-3.86-7.817-7.556-10.615.4,4.825.772,9.862-.965,14.379s-6.311,8.347-11.1,7.595l-1.65-10.847a31.256,31.256,0,0,1-11.484,7.189,83.765,83.765,0,0,1,11.976-32.415c-12.149,5.848-19.223,18.509-25.544,30.407-3.947,7.44-8.019,15.575-6.649,23.884.56,3.387,2.017,6.6,2.335,10.017s-.917,7.382-4.092,8.685c-2.9,1.206-6.4-.4-8.347-2.9s-2.7-5.684-3.406-8.762c-3.3-14.4-6.379-29.259-3.976-43.831.868-5.259,2.451-10.47,2.258-15.788-.415-11.648-9.013-21.23-13.2-32.067-1.631-4.217-2.422-9.467.579-12.844,1.544-1.747,3.86-2.625,5.79-3.86,5.993-3.918,8.685-11.329,9.785-18.412a63.805,63.805,0,0,0-.647-23.044c-2.422-11.339-7.981-22.417-6.6-33.93,1.351-11.329,9.11-20.67,14.33-30.813a72.9,72.9,0,0,0,7.392-42.605c-.9-6.8-2.47-14.678,2.142-19.763,5.539-6.1,16.26-3.8,22.581-9.09,3.088-2.577,4.584-6.543,6.871-9.843a24.125,24.125,0,0,1,25.775-9.206c4.343,1.245,8.241,3.715,12.545,5.115,6.06,1.93,12.545,1.718,18.914,2.48s13.037,2.9,16.685,8.116c1.93,2.779,2.808,6.166,4.584,9.042,3.812,6.176,11.078,9.148,16.579,13.886a32.173,32.173,0,0,1,9.052,34.364c-3.281,9.139-10.876,17.225-10.229,26.914.261,3.985,1.93,7.894,1.409,11.841-1.525,10.991-17.476,13.182-22.986,22.813.444-15.788-2.586-32.048-11.2-45.278-6.89-10.615-27.84-29.143-42.238-23.98a10.239,10.239,0,0,0-6.292,6.755c-1.428,5.414,2.75,7.72,5.433,12A36.477,36.477,0,0,1,566.643,340.84Z" transform="translate(-60.311 -81.147)" fill="#3f3d56"/><g transform="translate(420.397 183.94)" opacity="0.2"><path d="M499.353,400.041a63.254,63.254,0,0,0-1.38-14.765c-2.055-9.65-6.359-19.1-6.755-28.786-.56,10.789,4.487,21.23,6.755,31.845a63.35,63.35,0,0,1,1.38,11.705Z" transform="translate(-481.076 -269.591)"/><path d="M541.169,482.605c.84-1.534,1.708-3.059,2.644-4.545-12.14,5.848-19.223,18.509-25.544,30.417-3.657,6.88-7.411,14.369-6.852,22.031.463-6.572,3.7-12.979,6.852-18.933C524.117,500.564,530.622,488.926,541.169,482.605Z" transform="translate(-481.782 -273.845)"/><path d="M513.252,546.1c-.367,2.606-1.66,5.076-4.034,6.051-2.9,1.2-6.4-.4-8.338-2.9s-2.712-5.674-3.416-8.762c-2.355-10.287-4.593-20.825-4.825-31.314-.232,11.513,2.219,23.112,4.825,34.422.7,3.078,1.467,6.273,3.416,8.762s5.414,4.092,8.338,2.9c3.175-1.3,4.42-5.269,4.1-8.685A1.172,1.172,0,0,1,513.252,546.1Z" transform="translate(-481.126 -274.934)"/><path d="M570.718,334.2a35.018,35.018,0,0,1-1.119,7.334c-1.679,6.3-4.96,13.288-4.371,19.3.463-5.25,2.972-10.962,4.371-16.222A34.876,34.876,0,0,0,570.718,334.2Z" transform="translate(-483.665 -268.811)"/><path d="M514.452,285.779a72.432,72.432,0,0,0-.6-11.011c-.357-2.683-.811-5.539-.965-8.328-.222,3.715.454,7.72.965,11.435a72.244,72.244,0,0,1,.6,7.9Z" transform="translate(-481.834 -266.44)"/><path d="M580.681,384.181a.333.333,0,0,0-.068-.241c-.733,3.59-3.686,6.871-5.047,10.48a14.7,14.7,0,0,0-.849,6.755,13.875,13.875,0,0,1,.849-3.648C577.274,392.982,581.53,388.968,580.681,384.181Z" transform="translate(-483.996 -270.552)"/><path d="M495.33,478.495c-.425-11.648-9.013-21.23-13.211-32.067a21.981,21.981,0,0,1-1.351-5.308,17.929,17.929,0,0,0,1.351,8.415c4.13,10.692,12.487,20.1,13.163,31.488C495.33,480.183,495.359,479.334,495.33,478.495Z" transform="translate(-480.709 -272.553)"/><path d="M608.229,317.1c-6.9-10.615-27.84-29.143-42.238-23.98a10.248,10.248,0,0,0-6.3,6.755,7.3,7.3,0,0,0-.106,3.628,2.007,2.007,0,0,1,.106-.521,10.229,10.229,0,0,1,6.3-6.755c14.4-5.163,35.339,13.394,42.238,23.98,7.8,11.985,11.011,26.451,11.223,40.8C619.655,345.614,616.577,329.913,608.229,317.1Z" transform="translate(-483.463 -267.342)"/><path d="M644.568,341.244c-1.515,10.962-17.37,13.172-22.938,22.745v3.165c5.5-9.65,21.462-11.821,22.977-22.813a13.092,13.092,0,0,0,0-3.252A.826.826,0,0,1,644.568,341.244Z" transform="translate(-485.641 -269.052)"/><path d="M654.168,300.764c-3.281,9.148-10.876,17.225-10.229,26.924v.425c.714-8.54,7.209-15.952,10.181-24.241a30.378,30.378,0,0,0,1.689-11.812,29.5,29.5,0,0,1-1.641,8.7Z" transform="translate(-486.42 -267.337)"/><path d="M569.412,500.932a5.018,5.018,0,0,1-3.156,2.142c-4.622.492-3.86-7.817-7.556-10.615.1,1.1.183,2.21.241,3.32,3.435,2.972,2.8,10.876,7.315,10.393a4.97,4.97,0,0,0,3.156-2.133c4.121-5.172,4.516-11.706,4.41-18.49C573.715,491.2,572.9,496.6,569.412,500.932Z" transform="translate(-483.439 -274.107)"/><path d="M556.811,507.367c-1.756,4.526-6.311,8.357-11.107,7.595q-.82-5.414-1.641-10.847a31.478,31.478,0,0,1-10.914,6.977c-.212,1.1-.415,2.21-.579,3.32a31.285,31.285,0,0,0,11.493-7.189q.82,5.433,1.641,10.847c4.825.753,9.351-3.069,11.107-7.595a24.725,24.725,0,0,0,1.264-9.814A20.876,20.876,0,0,1,556.811,507.367Z" transform="translate(-482.524 -274.636)"/><path d="M574.634,465.352a55.136,55.136,0,0,0-.415,8.791,44.009,44.009,0,0,1,.415-5.684c1.727-11.86,10.036-22.716,9.283-34.48C583.251,444.614,576.207,454.544,574.634,465.352Z" transform="translate(-483.981 -272.303)"/></g><path d="M328.389,590.72a17.805,17.805,0,0,0-2.355,4.439c-.145.386-.29.83-.434,1.255a3.429,3.429,0,0,0-.82-.28,11.4,11.4,0,0,0-3.686-.318c0-.482.048-.965.068-1.515.154-5.462-.492-13.057-5.694-9.843-4.989,3.107-1.428,8.26,1.795,11.58.28.289.55.55.82.811-2.9,2.113-3.493,6.967-3.985,12.053s-4.825,10.615-7.662,13.8c-.28.318-.55.608-.811.878a10.4,10.4,0,0,0-8.318-2.142l-.386-1.409c-2.316-8.367-7.131-22.861-13.269-26.055l.811-1.023c2.606-3.416,5.539-8.482,1.206-9.776s-4.729,4.391-4.487,8.685a14.565,14.565,0,0,0,.125,1.515,6.4,6.4,0,0,0-4.545,2.21c-.2-.251-.425-.511-.666-.791-3.513-4.159-9.969-10.731-11.918-5.79-1.814,4.632,3.86,10.615,7.855,14.147l.251.212c-2.683,10.885,9.013,19.744,15.324,23.623.28.183.55.347.811.5-8.685,10.239-14.06,29.442-14.06,29.442l24.376,4.43s16.145-13.925,14.079-27.02h.164c16.125-3.233,19.792-20.429,17.283-30.639l.28-.116a18.335,18.335,0,0,0,7.469-5.645C342.488,591.685,333.021,584.592,328.389,590.72Z" transform="translate(-52.723 -93.578)" fill="#6c63ff"/><path d="M328.389,590.72a17.805,17.805,0,0,0-2.355,4.439c-.145.386-.29.83-.434,1.255a3.429,3.429,0,0,0-.82-.28,11.4,11.4,0,0,0-3.686-.318c0-.482.048-.965.068-1.515.154-5.462-.492-13.057-5.694-9.843-4.989,3.107-1.428,8.26,1.795,11.58.28.289.55.55.82.811-2.9,2.113-3.493,6.967-3.985,12.053s-4.825,10.615-7.662,13.8c-.28.318-.55.608-.811.878a10.4,10.4,0,0,0-8.318-2.142l-.386-1.409c-2.316-8.367-7.131-22.861-13.269-26.055l.811-1.023c2.606-3.416,5.539-8.482,1.206-9.776s-4.729,4.391-4.487,8.685a14.565,14.565,0,0,0,.125,1.515,6.4,6.4,0,0,0-4.545,2.21c-.2-.251-.425-.511-.666-.791-3.513-4.159-9.969-10.731-11.918-5.79-1.814,4.632,3.86,10.615,7.855,14.147l.251.212c-2.683,10.885,9.013,19.744,15.324,23.623.28.183.55.347.811.5-8.685,10.239-14.06,29.442-14.06,29.442l24.376,4.43s16.145-13.925,14.079-27.02h.164c16.125-3.233,19.792-20.429,17.283-30.639l.28-.116a18.335,18.335,0,0,0,7.469-5.645C342.488,591.685,333.021,584.592,328.389,590.72Z" transform="translate(-52.723 -93.578)" opacity="0.1"/><path d="M324.494,594.356c-.1,2.741-.357,4.931-.357,4.931a36.213,36.213,0,0,1-3.551-3.175c-3.223-3.339-6.755-8.492-1.785-11.58C324,581.3,324.639,588.894,324.494,594.356Z" transform="translate(-54.56 -93.604)" fill="#6c63ff"/><path d="M341.727,598.114a18.334,18.334,0,0,1-7.469,5.645,20.183,20.183,0,0,1-2.509.907l-3.349-4.709a33.779,33.779,0,0,1,1.39-4.574,17.494,17.494,0,0,1,2.355-4.439C336.776,584.787,346.233,591.88,341.727,598.114Z" transform="translate(-54.982 -93.773)" fill="#6c63ff"/><path d="M320.74,596.5a5.79,5.79,0,0,1,3.908-1.756c-.1,2.741-.357,4.931-.357,4.931a36.217,36.217,0,0,1-3.551-3.175Z" transform="translate(-54.714 -93.989)" opacity="0.1"/><path d="M334.258,604.006a20.183,20.183,0,0,1-2.509.907L328.4,600.2a33.779,33.779,0,0,1,1.39-4.574C331.951,596.894,333.543,600.04,334.258,604.006Z" transform="translate(-54.982 -94.02)" opacity="0.1"/><path d="M315.744,634.783c-.386.077-.791.154-1.187.212-23.729,3.609-7.826-9.2-7.826-9.2s1.071-.965,2.519-2.586c2.9-3.165,7.17-8.685,7.662-13.8.743-7.72,1.6-14.909,10.683-12.786C336.5,598.711,338.2,630.286,315.744,634.783Z" transform="translate(-54.041 -94.041)" fill="#6c63ff"/><rect width="45.336" height="11.918" transform="translate(215.932 599.819)" fill="#d4dfec"/><rect width="59.232" height="41.601" transform="translate(208.724 561.074)" fill="#d4dfec"/><rect width="45.336" height="11.918" transform="translate(215.932 599.819)" opacity="0.1"/><rect width="59.232" height="41.601" transform="translate(208.724 561.074)" opacity="0.1"/><rect width="45.336" height="11.918" transform="translate(218.905 599.819)" fill="#d4dfec"/><path d="M315.744,635.76c-.386.077-.791.154-1.187.212-23.729,3.609-7.826-9.2-7.826-9.2s1.071-.965,2.519-2.586C313.679,627.732,315.493,631.727,315.744,635.76Z" transform="translate(-54.041 -95.019)" opacity="0.1"/><path d="M276.29,658.4s13.288-47.555,31.913-32.907-7.575,37.259-7.575,37.259Z" transform="translate(-53.159 -94.967)" fill="#6c63ff"/><circle cx="1.486" cy="1.486" r="1.486" transform="translate(271.44 511.154)" opacity="0.1"/><circle cx="1.486" cy="1.486" r="1.486" transform="translate(268.342 522.705)" opacity="0.1"/><circle cx="1.486" cy="1.486" r="1.486" transform="translate(252.94 538.107)" opacity="0.1"/><circle cx="1.486" cy="1.486" r="1.486" transform="translate(267.348 515.622)" opacity="0.1"/><circle cx="1.486" cy="1.486" r="1.486" transform="translate(262.253 527.173)" opacity="0.1"/><rect width="45.336" height="4.352" transform="translate(218.905 599.819)" opacity="0.1"/><rect width="59.232" height="41.601" transform="translate(211.706 561.074)" fill="#d4dfec"/><circle cx="1.554" cy="1.554" r="1.554" transform="translate(376.867 486.615)" fill="#e7effd"/></g></svg>