<svg xmlns="http://www.w3.org/2000/svg" width="169.435" height="280.729" viewBox="0 0 169.435 280.729"><g transform="translate(0 0)" opacity="0.2"><path d="M499.353,400.041a63.254,63.254,0,0,0-1.38-14.765c-2.055-9.65-6.359-19.1-6.755-28.786-.56,10.789,4.487,21.23,6.755,31.845a63.35,63.35,0,0,1,1.38,11.705Z" transform="translate(-481.076 -269.591)"/><path d="M541.169,482.605c.84-1.534,1.708-3.059,2.644-4.545-12.14,5.848-19.223,18.509-25.544,30.417-3.657,6.88-7.411,14.369-6.852,22.031.463-6.572,3.7-12.979,6.852-18.933C524.117,500.564,530.622,488.926,541.169,482.605Z" transform="translate(-481.782 -273.845)"/><path d="M513.252,546.1c-.367,2.606-1.66,5.076-4.034,6.051-2.9,1.2-6.4-.4-8.338-2.9s-2.712-5.674-3.416-8.762c-2.355-10.287-4.593-20.825-4.825-31.314-.232,11.513,2.219,23.112,4.825,34.422.7,3.078,1.467,6.273,3.416,8.762s5.414,4.092,8.338,2.9c3.175-1.3,4.42-5.269,4.1-8.685A1.172,1.172,0,0,1,513.252,546.1Z" transform="translate(-481.126 -274.934)"/><path d="M570.718,334.2a35.018,35.018,0,0,1-1.119,7.334c-1.679,6.3-4.96,13.288-4.371,19.3.463-5.25,2.972-10.962,4.371-16.222A34.876,34.876,0,0,0,570.718,334.2Z" transform="translate(-483.665 -268.811)"/><path d="M514.452,285.779a72.432,72.432,0,0,0-.6-11.011c-.357-2.683-.811-5.539-.965-8.328-.222,3.715.454,7.72.965,11.435a72.244,72.244,0,0,1,.6,7.9Z" transform="translate(-481.834 -266.44)"/><path d="M580.681,384.181a.333.333,0,0,0-.068-.241c-.733,3.59-3.686,6.871-5.047,10.48a14.7,14.7,0,0,0-.849,6.755,13.875,13.875,0,0,1,.849-3.648C577.274,392.982,581.53,388.968,580.681,384.181Z" transform="translate(-483.996 -270.552)"/><path d="M495.33,478.495c-.425-11.648-9.013-21.23-13.211-32.067a21.981,21.981,0,0,1-1.351-5.308,17.929,17.929,0,0,0,1.351,8.415c4.13,10.692,12.487,20.1,13.163,31.488C495.33,480.183,495.359,479.334,495.33,478.495Z" transform="translate(-480.709 -272.553)"/><path d="M608.229,317.1c-6.9-10.615-27.84-29.143-42.238-23.98a10.248,10.248,0,0,0-6.3,6.755,7.3,7.3,0,0,0-.106,3.628,2.007,2.007,0,0,1,.106-.521,10.229,10.229,0,0,1,6.3-6.755c14.4-5.163,35.339,13.394,42.238,23.98,7.8,11.985,11.011,26.451,11.223,40.8C619.655,345.614,616.577,329.913,608.229,317.1Z" transform="translate(-483.463 -267.342)"/><path d="M644.568,341.244c-1.515,10.962-17.37,13.172-22.938,22.745v3.165c5.5-9.65,21.462-11.821,22.977-22.813a13.092,13.092,0,0,0,0-3.252A.826.826,0,0,1,644.568,341.244Z" transform="translate(-485.641 -269.052)"/><path d="M654.168,300.764c-3.281,9.148-10.876,17.225-10.229,26.924v.425c.714-8.54,7.209-15.952,10.181-24.241a30.378,30.378,0,0,0,1.689-11.812,29.5,29.5,0,0,1-1.641,8.7Z" transform="translate(-486.42 -267.337)"/><path d="M569.412,500.932a5.018,5.018,0,0,1-3.156,2.142c-4.622.492-3.86-7.817-7.556-10.615.1,1.1.183,2.21.241,3.32,3.435,2.972,2.8,10.876,7.315,10.393a4.97,4.97,0,0,0,3.156-2.133c4.121-5.172,4.516-11.706,4.41-18.49C573.715,491.2,572.9,496.6,569.412,500.932Z" transform="translate(-483.439 -274.107)"/><path d="M556.811,507.367c-1.756,4.526-6.311,8.357-11.107,7.595q-.82-5.414-1.641-10.847a31.478,31.478,0,0,1-10.914,6.977c-.212,1.1-.415,2.21-.579,3.32a31.285,31.285,0,0,0,11.493-7.189q.82,5.433,1.641,10.847c4.825.753,9.351-3.069,11.107-7.595a24.725,24.725,0,0,0,1.264-9.814A20.876,20.876,0,0,1,556.811,507.367Z" transform="translate(-482.524 -274.636)"/><path d="M574.634,465.352a55.136,55.136,0,0,0-.415,8.791,44.009,44.009,0,0,1,.415-5.684c1.727-11.86,10.036-22.716,9.283-34.48C583.251,444.614,576.207,454.544,574.634,465.352Z" transform="translate(-483.981 -272.303)"/></g></svg>