<svg xmlns="http://www.w3.org/2000/svg" width="134.251" height="106.733" viewBox="0 0 134.251 106.733"><path d="M617.638,441.96l-39.411,7.768-2.557.511s-31.16-8.28-32.193-8.975-29.317-38.8-29.317-38.8,14.3.154,25.534-6.321c.405-.232.8-.483,1.2-.724A24.9,24.9,0,0,0,551.506,382.4c.2-.569.376-1.158.54-1.776,1.2-4.613,1.274-10.2-.328-16.965-3.86-16.087,5.018-20.516,16.781-20.13,16.994.56,40.125,11.165,40.125,11.165a47.161,47.161,0,0,0,3.638,15.73c.183.463.386.965.6,1.409a44.912,44.912,0,0,0,20.931,21.954l1.245.618c1.254.6,2.577,1.168,3.947,1.679C669.034,407.47,617.638,441.96,617.638,441.96Z" transform="translate(-514.16 -343.506)" fill="#fbbebe"/></svg>