<svg xmlns="http://www.w3.org/2000/svg" width="143.494" height="264.569" viewBox="0 0 143.494 264.569">
  <path id="Path_49" data-name="Path 49" d="M624.167,334.861a49.332,49.332,0,0,1-7.527,26.277c-.415-13.829-3.667-27.667-11.194-39.218-6.89-10.615-27.84-29.134-42.238-23.971a10.2,10.2,0,0,0-6.292,6.755c-1.428,5.423,2.75,7.72,5.433,12a36.776,36.776,0,0,1,5.018,24.781,34.455,34.455,0,0,1-.724,3.435c-2.268,8.511-7.459,18.248-2.1,25.225,3.735,4.825,11.763,6.543,12.854,12.545a7.325,7.325,0,0,1,.1,1.718c-.251,4.063-3.715,7.643-5.23,11.628-1.776,4.7-.772,9.37,1.071,14.089,2.393,6.157,6.215,12.381,7.141,18.885s-1.071,12.545-3.426,18.654c-2.229,5.79-4.825,11.532-5.694,17.563-1.669,11.464,2.538,24.723-4.68,33.775a5.056,5.056,0,0,1-3.156,2.133c-4.622.482-3.86-7.826-7.556-10.615.4,4.825.772,9.862-.965,14.379s-6.311,8.357-11.1,7.595l-1.65-10.837a31.3,31.3,0,0,1-11.484,7.189,83.706,83.706,0,0,1,11.985-32.424c-12.149,5.848-19.233,18.509-25.553,30.417-3.937,7.44-8.019,15.566-6.639,23.874.56,3.387,2.017,6.61,2.335,10.017s-.917,7.392-4.092,8.685c-2.77,1.129-6-.222-8-2.48l-.347-.415c-.193-.251-.376-.511-.55-.772a12.97,12.97,0,0,1-.917-1.64,31.741,31.741,0,0,1-1.93-6.34l-.212-.965c-3.213-14.1-6.108-28.641-3.754-42.9.868-5.25,2.451-10.461,2.258-15.788a28.949,28.949,0,0,0-1.814-8.782c-2.818-7.894-8.241-15.141-11.329-23.093a.685.685,0,0,1-.077-.174c-1.621-4.207-2.422-9.467.579-12.844,1.544-1.747,3.86-2.625,5.79-3.86,6-3.908,8.685-11.329,9.795-18.412a62.612,62.612,0,0,0,.753-9.65c8.135-2.9,18.991-7.064,20.188-6.408,1.689.907,18.615-.666,19.3-.733a25.356,25.356,0,0,0,11.85-13.742c.2-.569.376-1.158.54-1.776a49.669,49.669,0,1,1,73.254-43.724Z" transform="translate(-480.683 -285.248)" opacity="0.1"/>
</svg>
