<svg xmlns="http://www.w3.org/2000/svg" xmlns:xlink="http://www.w3.org/1999/xlink" width="426.058" height="540.935" viewBox="0 0 426.058 540.935"><defs><linearGradient id="a" x1="0.5" y1="1" x2="0.5" gradientUnits="objectBoundingBox"><stop offset="0" stop-color="gray" stop-opacity="0.251"/><stop offset="0.54" stop-color="gray" stop-opacity="0.122"/><stop offset="1" stop-color="gray" stop-opacity="0.102"/></linearGradient></defs><path d="M747,605.151s-33.109,8.01-46.214,23c-4.391,5.008-10.9,8.617-17.631,11.194v-22.61c7.575-12.719,15.208-26.866,15.208-26.866.347-.695,3.107-10.451,3.107-10.451,6.215-4.883-.347-21.944-.347-21.944s3.8-10.8,1.727-12.892-.347-7.662,1.38-10.1,1.38-5.578,1.38-7.662-2.76-5.23-7.247-6.967.347-4.526,3.107-5.23,3.455-7.315.347-10.8.347-5.568,2.065-9.4-5.549-3.136-5.549-3.136V456.058h0s-2.075-11.493-4.14-31.7-10.007-22.292-10.007-22.292a90.889,90.889,0,0,1-12.42-4.883,85.063,85.063,0,0,0-13.1-4.873s-9.312,0-16.907-2.335-11.532-2.5-11.532-2.5l-1.245-.618a45.191,45.191,0,0,1-20.931-22.2c-.212-.483-.405-.965-.6-1.428a48.717,48.717,0,0,0,5.51-7.315v4.034h0v.087c5.5-9.718,21.462-11.937,22.977-23.035a11.561,11.561,0,0,0,.106-1.525v-1.187c-.2-3.1-1.264-6.186-1.467-9.312a17.866,17.866,0,0,1,0-2.692v.058c.714-8.617,7.209-16.116,10.181-24.482a29.347,29.347,0,0,0,1.554-6.967v-.068c.077-.714.125-1.438.145-2.162v-2.036a32.6,32.6,0,0,0-10.76-23.546c-5.5-4.777-12.767-7.778-16.579-14.022-1.776-2.9-2.644-6.33-4.584-9.129-3.648-5.288-10.345-7.44-16.685-8.2s-12.854-.511-18.914-2.5c-4.3-1.409-8.2-3.908-12.545-5.163a24,24,0,0,0-25.775,9.293c-2.287,3.339-3.783,7.334-6.871,9.94-6.321,5.346-17.042,3.03-22.581,9.187-3.04,3.387-3.387,8-3.02,12.709v.174a10.688,10.688,0,0,0,.106,1.09v.511a1.592,1.592,0,0,0,.068.55c.193,1.689.434,3.368.647,4.989a6.483,6.483,0,0,0,.087.743l.174,1.515a10.578,10.578,0,0,0,.1,1.1c.039.367.068.965.1,1.37a9.543,9.543,0,0,0,.068,1.081,74.461,74.461,0,0,1-7.913,37.153c-5.221,10.239-12.979,19.676-14.33,31.112a33.518,33.518,0,0,0-.154,5.645v.666c0,.222.058.676.087,1.013s.077.782.125,1.168a5.238,5.238,0,0,0,.087.666c.068.511.145,1.023.232,1.544l.058.328c1.37,7.8,4.478,15.44,6.128,23.315a63.056,63.056,0,0,1,1.235,8.811.125.125,0,0,0,0,.058c.058.965.106,1.882.135,2.827v3.86a61.248,61.248,0,0,1-8.038,2.47c-4.825.695-18.982,13.24-17.949,16.405s-6.33,25.09-6.533,25.756h0l-11.58,80.1s-6.147,5.925-4.227,9.756-.376,10.451-.376,10.451-10.383,4.526-8.077,7.315,1.255,8.01-.328,11.493-4.178,9.756,0,10.8.714,14.639.714,14.639,14.562-1.679,13.51,6.967c-.347,2.75,10.181,10.316,14.572,13.346v41.63a127.225,127.225,0,0,1-17.245-5.858c-8.965-4.179-59.329-12.188-70.368,11.85s15.18,56.086,21.732,59.57c0,0,6.215,4.873,7.595,7.315s9.312,3.136,9.312,3.136,8.28,3.86,10.345,5.916c1.525,1.544,14.137,5.549,29.085,8.685h0s-12.072,27.792,7.624,25.505,29.288-11.985,43.174-11.985c5.549,0,15.855-.782,26.229-1.708a69.706,69.706,0,0,1,7.72,1.824,99.206,99.206,0,0,0,17.93,3.86s15.527,8.357,23.807,6.263a5.261,5.261,0,0,0,1.872-.965h.193c1.505-.376,3.214-1.93,4.989-4.275,10.354,1.062,22.2,2.567,26.6,4.285,8.579,3.31,69.944-1.274,69.944-1.274s39.642.782,51,4.217,7.324-35.078-13.636-39.411a86,86,0,0,0-16.993-1.679,38.119,38.119,0,0,0,3.966-4.825c7.546-.685,12.545-1.11,12.545-1.11s20-9.756,31.392-15.681a71.625,71.625,0,0,0,19.3-15.324s10-6.272,14.137-8.685,6.205-10.451,6.205-10.451C826.678,595.733,747,605.151,747,605.151ZM657.174,516v-3.513c1.119.791.955,2.036,0,3.5Zm.328,24.637c.84,1.1,1.65,2.1,2.229,2.9,2.229,2.9-1.8,4.246-1.515,9.042.068,1.071.164,2.567.261,4.227h0c-.425-6.919-.772-12.613-.975-16.174Z" transform="translate(-376.563 -223.253)" fill="url(#a)"/></svg>