<svg xmlns="http://www.w3.org/2000/svg" width="1016.045" height="314.575" viewBox="0 0 1016.045 314.575"><path d="M1118.045,590.65v1.718c-.492,17.93-10.422,35.811-28.641,48.4-19.184,13.24-44.911,20.207-71.324,24.656-4.13.695-8.28,1.322-12.42,1.93-2.113.289-4.217.579-6.311.849-14.475,1.93-29.027,3.407-43.628,4.642-19.59,1.66-39.276,2.808-58.981,3.657-25.3,1.11-50.653,1.737-75.975,2.364-49.5,1.216-99.029,2.432-148.611,3.271l-17.592.289-21.462.289-12.41.145c-78.166.83-156.215.405-234.13-2.779q-7.778-.309-15.527-.676-17.37-.762-34.74-1.766c-23.208-1.312-46.6-2.972-69.741-5.433q-9.206-.965-18.335-2.133-6.224-.762-12.41-1.669-6.89-.965-13.722-2.1c-33.775-5.52-66.383-13.51-96.452-25.688A250.277,250.277,0,0,1,102,629.674V459.833c4.285-4.97,8.54-9.94,12.632-14.967,4.922-6.041,9.65-12.265,13.993-18.654h93.413V368.65H386.571V495.2H654.563V394.84H963.751a108.087,108.087,0,0,0-8.1,16.067v.54H955.3a69.115,69.115,0,0,0-4.506,18.625,48.7,48.7,0,0,0,4.825,26.634v.405l.087.193c8.955,17.756,27.908,30.34,49.852,41.5,4.043,2.065,8.2,4.072,12.42,6.06,23.556,11.117,48.935,21.462,68.351,35.126l.579.405a103.839,103.839,0,0,1,14.292,11.947c.145.135.27.27.4.405a74.63,74.63,0,0,1,5.172,5.954,52.312,52.312,0,0,1,11.271,31.141C1118.045,590.129,1118.045,590.389,1118.045,590.65Z" transform="translate(-102 -368.65)" fill="#6c63ff"/></svg>