<svg xmlns="http://www.w3.org/2000/svg" xmlns:xlink="http://www.w3.org/1999/xlink" width="53.126" height="145.014" viewBox="0 0 53.126 145.014">
  <defs>
    <linearGradient id="linear-gradient" x1="0.5" x2="0.5" y2="1" gradientUnits="objectBoundingBox">
      <stop offset="0" stop-color="#fddb71"/>
      <stop offset="1" stop-color="#ee7a37"/>
    </linearGradient>
  </defs>
  <path id="Path_42" data-name="Path 42" d="M699.055,459.612l9.312,6.552V501s7.247-.695,5.52,3.107-5.172,5.858-2.065,9.312,2.412,10-.347,10.692-7.585,3.445-3.107,5.172,7.247,4.825,7.247,6.9.347,5.172-1.38,7.585-3.445,7.932-1.38,10.007-1.727,12.757-1.727,12.757,6.562,16.907.347,21.732c0,0-2.76,9.65-3.107,10.345,0,0,4.352-33.573-39.044-19.377,0,0-.8-12.8-1.1-17.534s3.744-6.128,1.515-8.955-7.807-9.322-5.172-11.04,1.727-4.825.685-7.247-4.68-2.412-1.38-5.346,5.259-5.684,3.32-7.064-5.308-5.877-2.625-7.942,2.76-32.077,2.76-32.077S678.365,437.88,699.055,459.612Z" transform="translate(-662.517 -453.597)" fill="url(#linear-gradient)"/>
</svg>
