<svg xmlns="http://www.w3.org/2000/svg" width="134.283" height="56.366" viewBox="0 0 134.283 56.366"><path d="M617.638,443.786l-39.411,7.768-2.557.511s-31.16-8.28-32.193-8.975-29.317-38.8-29.317-38.8,14.3.154,25.534-6.321c.405-.232.8-.483,1.2-.724,3.57,3.86,15.257,14.774,33.621,14.7a48.566,48.566,0,0,0,7.045-.511c5.539-.849,11.127-1.4,16.7-1.93,10.683-1.119,27.02-4.362,35.6-13.8l1.245.618c1.254.6,2.577,1.168,3.947,1.679C669.034,409.3,617.638,443.786,617.638,443.786Z" transform="translate(-514.16 -395.7)" opacity="0.1"/></svg>