<svg xmlns="http://www.w3.org/2000/svg" width="235.558" height="241.396" viewBox="0 0 235.558 241.396"><path d="M660.445,544.524c.338,7.595,5.867,93.133,5.867,93.133H494.184l1.168-53.857.965-43.078.309-14.137,1.38-48.974-4.989-4.4L465.9,449.316h0c.2-.637,7.556-22.436,6.533-25.505s13.114-15.517,17.949-16.212a62.843,62.843,0,0,0,8.087-2.461c8.135-2.9,18.991-7.064,20.188-6.408,1.689.907,18.615-.666,19.3-.733h0s12.487,16.145,34.8,16.048a47.281,47.281,0,0,0,7.016-.56c5.539-.849,11.127-1.4,16.7-1.978,11.223-1.168,28.67-4.69,36.844-15.247,0,0,3.947.164,11.532,2.47s16.907,2.316,16.907,2.316a85.8,85.8,0,0,1,13.1,4.825,91.674,91.674,0,0,0,12.42,4.825s7.932,2.065,10.007,22.07,4.169,31.392,4.169,31.392L660.445,499.68S660.107,536.9,660.445,544.524Z" transform="translate(-465.9 -396.26)" fill="#fddb71"/></svg>