<svg xmlns="http://www.w3.org/2000/svg" xmlns:xlink="http://www.w3.org/1999/xlink" width="1070.986" height="596.71" viewBox="0 0 1070.986 596.71"><defs><linearGradient id="a" x1="0.5" x2="0.5" y2="1" gradientUnits="objectBoundingBox"><stop offset="0" stop-color="#6c63ff"/><stop offset="1" stop-color="#c77cf1"/></linearGradient></defs><path d="M1116.053,582.12c-.647,17.795-10.557,35.493-28.641,47.99-19.184,13.24-44.911,20.207-71.324,24.656-4.13.695-8.28,1.322-12.42,1.93-2.113.289-4.217.579-6.311.849-58.8,7.72-118.831,9.2-178.584,10.615-62.5,1.544-125.065,3.069-187.636,3.86l-12.41.145c-94.937,1.023-189.836.164-284.426-5.221-29.355-1.66-59-3.86-88.105-7.566q-6.224-.762-12.41-1.669c-38.6-5.529-76.052-14.012-110.175-27.783a245.553,245.553,0,0,1-23.6-10.9C78.575,607.645,60.5,593.257,51.555,575.6a60.911,60.911,0,0,1-6.176-33.5,78.378,78.378,0,0,1,2.152-12.42A110.666,110.666,0,0,1,59.719,501c13.935-23.565,34.866-44.689,52.911-66.817,38.523-47.16,63.613-106.749,28.062-155.086-10.2-13.886-24.945-26.055-33.254-40.578a65.35,65.35,0,0,1-8.145-25.5,91.74,91.74,0,0,1-.511-12.42,172.282,172.282,0,0,1,3.619-28.8c5.79-29.645,16.608-61.606,50.016-80.1,22.8-12.622,51.869-16.54,81.34-15.8q6.2.145,12.41.579c11.3.743,22.533,2.113,33.38,3.86,67.01,10.7,128.857,33.061,191.293,53.249,47.536,15.363,96.771,29.732,147.858,36.583,4.13.55,8.26,1.062,12.41,1.505,11.976,1.312,24.058,2.181,36.236,2.538,60.612,1.737,131.328-11.387,171.578-45.471,38.88-32.945,111.8-35.6,164.717-15.923l.791.3q5.973,2.277,11.58,4.9c39,18.335,65.119,49.736,68.8,82.595a71.688,71.688,0,0,1,.328,12.294.508.508,0,0,1,0,.125c-2.528,40.424-35.57,74.373-69.123,108.38-4.15,4.2-8.309,8.4-12.42,12.622-10.885,11.175-21.433,22.436-30.581,34.026a159.574,159.574,0,0,0-11.5,16.5,106.583,106.583,0,0,0-8.174,16.617,69.115,69.115,0,0,0-4.506,18.625,48.7,48.7,0,0,0,4.825,26.634l.087.193c8.955,17.756,27.908,30.34,49.852,41.5,4.043,2.065,8.2,4.072,12.42,6.06,23.8,11.233,49.437,21.664,68.93,35.532a103.348,103.348,0,0,1,14.649,12.352,74.669,74.669,0,0,1,5.172,5.954,52.246,52.246,0,0,1,11.271,31.546C1116.053,579.882,1116.053,581.541,1116.053,582.12Z" transform="translate(-45.067 -75.83)" fill="url(#a)"/></svg>