<svg xmlns="http://www.w3.org/2000/svg" width="169.517" height="317.977" viewBox="0 0 169.517 317.977">
  <path id="Path_50" data-name="Path 50" d="M566.643,340.84c-2.277,8.511-7.459,18.248-2.094,25.235,3.735,4.825,11.763,6.533,12.835,12.545.859,4.825-3.4,8.8-5.115,13.336-4.092,10.837,6.581,21.491,8.2,32.965,1.766,12.449-7.305,23.787-9.11,36.226-1.669,11.464,2.538,24.714-4.68,33.775a5,5,0,0,1-3.156,2.133c-4.622.492-3.86-7.817-7.556-10.615.4,4.825.772,9.862-.965,14.379s-6.311,8.347-11.1,7.595l-1.65-10.847a31.256,31.256,0,0,1-11.484,7.189,83.765,83.765,0,0,1,11.976-32.415c-12.149,5.848-19.223,18.509-25.544,30.407-3.947,7.44-8.019,15.575-6.649,23.884.56,3.387,2.017,6.6,2.335,10.017s-.917,7.382-4.092,8.685c-2.9,1.206-6.4-.4-8.347-2.9s-2.7-5.684-3.406-8.762c-3.3-14.4-6.379-29.259-3.976-43.831.868-5.259,2.451-10.47,2.258-15.788-.415-11.648-9.013-21.23-13.2-32.067-1.631-4.217-2.422-9.467.579-12.844,1.544-1.747,3.86-2.625,5.79-3.86,5.993-3.918,8.685-11.329,9.785-18.412a63.805,63.805,0,0,0-.647-23.044c-2.422-11.339-7.981-22.417-6.6-33.93,1.351-11.329,9.11-20.67,14.33-30.813a72.9,72.9,0,0,0,7.392-42.605c-.9-6.8-2.47-14.678,2.142-19.763,5.539-6.1,16.26-3.8,22.581-9.09,3.088-2.577,4.584-6.543,6.871-9.843a24.125,24.125,0,0,1,25.775-9.206c4.343,1.245,8.241,3.715,12.545,5.115,6.06,1.93,12.545,1.718,18.914,2.48s13.037,2.9,16.685,8.116c1.93,2.779,2.808,6.166,4.584,9.042,3.812,6.176,11.078,9.148,16.579,13.886a32.173,32.173,0,0,1,9.052,34.364c-3.281,9.139-10.876,17.225-10.229,26.914.261,3.985,1.93,7.894,1.409,11.841-1.525,10.991-17.476,13.182-22.986,22.813.444-15.788-2.586-32.048-11.2-45.278-6.89-10.615-27.84-29.143-42.238-23.98a10.239,10.239,0,0,0-6.292,6.755c-1.428,5.414,2.75,7.72,5.433,12A36.477,36.477,0,0,1,566.643,340.84Z" transform="translate(-480.679 -227.768)" fill="#3f3d56"/>
</svg>
