<svg width="80" height="80" viewBox="0 0 80 80" fill="none" xmlns="http://www.w3.org/2000/svg">
<path d="M62.4953 42.1195V41.5361" stroke="#F61067" stroke-miterlimit="10" stroke-linecap="round"/>
<path d="M62.4953 40.306V39.0759" stroke="#F61067" stroke-miterlimit="10" stroke-linecap="round"/>
<path d="M62.4953 38.4618V37.8783" stroke="#F61067" stroke-miterlimit="10" stroke-linecap="round"/>
<path d="M34.3141 47.0698V46.4863" stroke="#F61067" stroke-miterlimit="10" stroke-linecap="round"/>
<path d="M34.3141 44.1281V34.6914" stroke="#F61067" stroke-miterlimit="10" stroke-linecap="round"/>
<path d="M34.3141 33.5116V32.9281" stroke="#F61067" stroke-miterlimit="10" stroke-linecap="round"/>
<path d="M59.352 41.4121V40.8286" stroke="#F61067" stroke-miterlimit="10" stroke-linecap="round"/>
<path d="M59.352 39.1692V38.5856" stroke="#F61067" stroke-miterlimit="10" stroke-linecap="round"/>
<path d="M56.1938 48.0599V47.4764" stroke="#F61067" stroke-miterlimit="10" stroke-linecap="round"/>
<path d="M56.1938 45.3395V33.5897" stroke="#F61067" stroke-miterlimit="10" stroke-linecap="round"/>
<path d="M56.1938 32.5215V31.9379" stroke="#F61067" stroke-miterlimit="10" stroke-linecap="round"/>
<path d="M53.0504 56.2627V55.6791" stroke="#F61067" stroke-miterlimit="10" stroke-linecap="round"/>
<path d="M53.0504 53.2663V25.5257" stroke="#F61067" stroke-miterlimit="10" stroke-linecap="round"/>
<path d="M53.0504 24.3209V23.7374" stroke="#F61067" stroke-miterlimit="10" stroke-linecap="round"/>
<path d="M49.9071 49.1922V48.6087" stroke="#F61067" stroke-miterlimit="10" stroke-linecap="round"/>
<path d="M49.9071 46.1477V32.6217" stroke="#F61067" stroke-miterlimit="10" stroke-linecap="round"/>
<path d="M49.9071 31.3914V30.8078" stroke="#F61067" stroke-miterlimit="10" stroke-linecap="round"/>
<path d="M46.7489 53.4328V52.8493" stroke="#F61067" stroke-miterlimit="10" stroke-linecap="round"/>
<path d="M46.7637 50.6161V28.2648" stroke="#F61067" stroke-miterlimit="10" stroke-linecap="round"/>
<path d="M46.7489 27.1485V26.5651" stroke="#F61067" stroke-miterlimit="10" stroke-linecap="round"/>
<path d="M43.6055 63.3331V62.7496" stroke="#F61067" stroke-miterlimit="10" stroke-linecap="round"/>
<path d="M43.6055 60.3542V18.4458" stroke="#F61067" stroke-miterlimit="10" stroke-linecap="round"/>
<path d="M43.6055 17.2482V16.6648" stroke="#F61067" stroke-miterlimit="10" stroke-linecap="round"/>
<path d="M40.4622 60.5053V59.9217" stroke="#F61067" stroke-miterlimit="10" stroke-linecap="round"/>
<path d="M40.4622 57.6448V21.2168" stroke="#F61067" stroke-miterlimit="10" stroke-linecap="round"/>
<path d="M40.4622 20.0782V19.4946" stroke="#F61067" stroke-miterlimit="10" stroke-linecap="round"/>
<path d="M37.3188 56.2627V55.6791" stroke="#F61067" stroke-miterlimit="10" stroke-linecap="round"/>
<path d="M37.3188 53.2663V25.5257" stroke="#F61067" stroke-miterlimit="10" stroke-linecap="round"/>
<path d="M37.3188 24.3209V23.7374" stroke="#F61067" stroke-miterlimit="10" stroke-linecap="round"/>
<path d="M31.0173 60.5053V59.9217" stroke="#F61067" stroke-miterlimit="10" stroke-linecap="round"/>
<path d="M31.0173 57.6448V21.2168" stroke="#F61067" stroke-miterlimit="10" stroke-linecap="round"/>
<path d="M31.0173 20.0782V19.4946" stroke="#F61067" stroke-miterlimit="10" stroke-linecap="round"/>
<path d="M27.8739 68.2832V67.6997" stroke="#F61067" stroke-miterlimit="10" stroke-linecap="round"/>
<path d="M27.8739 65.3417V13.4783" stroke="#F61067" stroke-miterlimit="10" stroke-linecap="round"/>
<path d="M27.8739 12.3002V11.7167" stroke="#F61067" stroke-miterlimit="10" stroke-linecap="round"/>
<path d="M24.7306 78.889V78.3054" stroke="#F61067" stroke-miterlimit="10" stroke-linecap="round"/>
<path d="M24.7306 75.9472V2.87177" stroke="#F61067" stroke-miterlimit="10" stroke-linecap="round"/>
<path d="M24.7306 1.69464V1.11111" stroke="#F61067" stroke-miterlimit="10" stroke-linecap="round"/>
<path d="M21.5883 60.5053V59.9217" stroke="#F61067" stroke-miterlimit="10" stroke-linecap="round"/>
<path d="M21.5883 57.6448V21.2168" stroke="#F61067" stroke-miterlimit="10" stroke-linecap="round"/>
<path d="M21.5883 20.0782V19.4946" stroke="#F61067" stroke-miterlimit="10" stroke-linecap="round"/>
<path d="M18.429 52.7274V52.1438" stroke="#F61067" stroke-miterlimit="10" stroke-linecap="round"/>
<path d="M18.429 49.7136V29.0686" stroke="#F61067" stroke-miterlimit="10" stroke-linecap="round"/>
<path d="M18.429 27.8561V27.2725" stroke="#F61067" stroke-miterlimit="10" stroke-linecap="round"/>
<path d="M15.2867 45.6569V45.0734" stroke="#F61067" stroke-miterlimit="10" stroke-linecap="round"/>
<path d="M15.2867 42.5358V36.1941" stroke="#F61067" stroke-miterlimit="10" stroke-linecap="round"/>
<path d="M15.2867 34.9266V34.343" stroke="#F61067" stroke-miterlimit="10" stroke-linecap="round"/>
<path d="M12.1433 52.7274V52.1438" stroke="#F61067" stroke-miterlimit="10" stroke-linecap="round"/>
<path d="M12.1433 49.7136V29.0686" stroke="#F61067" stroke-miterlimit="10" stroke-linecap="round"/>
<path d="M12.1433 27.8561V27.2725" stroke="#F61067" stroke-miterlimit="10" stroke-linecap="round"/>
<path d="M9 45.6569V45.0734" stroke="#F61067" stroke-miterlimit="10" stroke-linecap="round"/>
<path d="M9 42.5358V36.1941" stroke="#F61067" stroke-miterlimit="10" stroke-linecap="round"/>
<path d="M9 34.9266V34.343" stroke="#F61067" stroke-miterlimit="10" stroke-linecap="round"/>
<path d="M79 61.0107V60.4271" stroke="#F61067" stroke-miterlimit="10" stroke-linecap="round"/>
<path d="M79 58.1501V21.7221" stroke="#F61067" stroke-miterlimit="10" stroke-linecap="round"/>
<path d="M79 20.5836V20" stroke="#F61067" stroke-miterlimit="10" stroke-linecap="round"/>
<path d="M75.8408 53.2328V52.6492" stroke="#F61067" stroke-miterlimit="10" stroke-linecap="round"/>
<path d="M75.8408 50.219V29.574" stroke="#F61067" stroke-miterlimit="10" stroke-linecap="round"/>
<path d="M75.8408 28.3615V27.7779" stroke="#F61067" stroke-miterlimit="10" stroke-linecap="round"/>
<path d="M72.6984 46.1623V45.5788" stroke="#F61067" stroke-miterlimit="10" stroke-linecap="round"/>
<path d="M72.6984 43.0412V36.6995" stroke="#F61067" stroke-miterlimit="10" stroke-linecap="round"/>
<path d="M72.6984 35.4319V34.8484" stroke="#F61067" stroke-miterlimit="10" stroke-linecap="round"/>
<path d="M69.5551 53.2328V52.6492" stroke="#F61067" stroke-miterlimit="10" stroke-linecap="round"/>
<path d="M69.5551 50.219V29.574" stroke="#F61067" stroke-miterlimit="10" stroke-linecap="round"/>
<path d="M69.5551 28.3615V27.7779" stroke="#F61067" stroke-miterlimit="10" stroke-linecap="round"/>
<path d="M66.4117 46.1623V45.5788" stroke="#F61067" stroke-miterlimit="10" stroke-linecap="round"/>
<path d="M66.4117 43.0412V36.6995" stroke="#F61067" stroke-miterlimit="10" stroke-linecap="round"/>
<path d="M66.4117 35.4319V34.8484" stroke="#F61067" stroke-miterlimit="10" stroke-linecap="round"/>
</svg>
