<svg width="50" height="50" viewBox="0 0 50 50" fill="none" xmlns="http://www.w3.org/2000/svg">
<path d="M20.0264 5.75488C19.8447 5.57324 19.5928 5.46875 19.3359 5.46875C19.0791 5.46875 18.8271 5.57314 18.6455 5.75488C18.4639 5.93652 18.3594 6.18848 18.3594 6.44531C18.3594 6.70215 18.4639 6.9541 18.6455 7.13564C18.8271 7.31738 19.0791 7.42188 19.3359 7.42188C19.5928 7.42188 19.8447 7.31738 20.0264 7.13564C20.208 6.9541 20.3125 6.70215 20.3125 6.44531C20.3125 6.18848 20.208 5.93652 20.0264 5.75488Z" fill="#F61067"/>
<path d="M15.7273 5.46875H11.8042C11.2648 5.46875 10.8276 5.90605 10.8276 6.44531C10.8276 6.98457 11.2648 7.42188 11.8042 7.42188H15.7273C16.2667 7.42188 16.7039 6.98457 16.7039 6.44531C16.7039 5.90605 16.2667 5.46875 15.7273 5.46875Z" fill="#F61067"/>
<path d="M16.5106 10.9375H11.8042C11.2648 10.9375 10.8276 11.3748 10.8276 11.9141C10.8276 12.4533 11.2648 12.8906 11.8042 12.8906H16.5106C17.05 12.8906 17.4872 12.4533 17.4872 11.9141C17.4872 11.3748 17.05 10.9375 16.5106 10.9375Z" fill="#F61067"/>
<path d="M49.623 20.324C49.6231 20.3237 49.6233 20.3235 49.6234 20.3232L43.1781 15.304C43.1735 15.3005 43.1687 15.2977 43.1641 15.2941V14.2578C43.1641 13.7186 42.7269 13.2812 42.1875 13.2812C41.6481 13.2812 41.2109 13.7186 41.2109 14.2578V27.5065C41.2109 27.5125 41.2117 27.5183 41.2118 27.5242L33.1313 35.6048L32.1956 34.7549C30.7333 33.4264 28.9514 32.5407 27.0417 32.1707L29.5772 29.6352C29.9586 29.2538 29.9586 28.6355 29.5772 28.254L26.297 24.9736L40.5923 18.8791C40.8906 18.7519 41.1064 18.4848 41.1681 18.1663C41.2297 17.8479 41.1292 17.5195 40.8998 17.2901L36.2319 12.6222C36.6271 11.9773 36.8389 11.2348 36.8389 10.4594C36.8389 9.35059 36.4071 8.3083 35.6231 7.52422C34.8392 6.74023 33.7968 6.3085 32.688 6.3085C31.9126 6.3085 31.17 6.52031 30.5252 6.91543L25.8572 2.24746C25.6277 2.01797 25.2996 1.91719 24.9809 1.9793C24.6623 2.04102 24.3953 2.25693 24.2682 2.55537L17.687 18.0119L14.1448 21.554C13.1495 22.5493 12.6013 23.8728 12.6013 25.2804C12.6013 26.688 13.1495 28.0113 14.1448 29.0066C15.1401 30.002 16.4636 30.5502 17.8712 30.5502C19.2788 30.5502 20.6021 30.0021 21.5975 29.0066L21.9699 28.6342L25.315 31.9793C25.2102 31.9763 25.1051 31.9741 24.9998 31.9741C22.3333 31.9741 19.7778 32.9615 17.8041 34.7546L16.8685 35.6045L8.78789 27.5239C8.78799 27.518 8.78877 27.5122 8.78877 27.5062V1.95312H19.725C20.2644 1.95312 20.7016 1.51582 20.7016 0.976562C20.7016 0.437305 20.2644 0 19.725 0H7.8125C7.27314 0 6.83594 0.437305 6.83594 0.976562V15.1381C6.82754 15.1444 6.81865 15.1499 6.81045 15.1565L0.365137 20.3323C0.365234 20.3325 0.365234 20.3326 0.365332 20.3328C0.142773 20.5118 0 20.7859 0 21.0938V45.0195C0 47.7657 2.23418 50 4.98047 50H45.0195C47.7658 50 50 47.7657 50 45.0195V21.0938C50 20.7807 49.8521 20.5027 49.623 20.324ZM43.1641 17.7685L47.5512 21.1849L43.1641 25.572V17.7685ZM32.6881 8.26182C33.2751 8.26182 33.8271 8.49043 34.2422 8.90557C34.6572 9.32061 34.8858 9.87246 34.8858 10.4596C34.8858 10.7018 34.8448 10.9372 34.7699 11.1604L31.9873 8.37764C32.2104 8.30273 32.4459 8.26182 32.6881 8.26182ZM25.4988 4.65127L29.7518 8.9042C29.7521 8.90459 29.7525 8.90508 29.7529 8.90557C29.7533 8.90605 29.7538 8.90635 29.7543 8.90674L34.2421 13.3945C34.2421 13.3946 34.2422 13.3946 34.2422 13.3947C34.2422 13.3948 34.2423 13.3948 34.2424 13.3948L38.4969 17.6493L36.4236 18.5332L24.6157 6.72529L25.4988 4.65127ZM23.7908 8.6627L34.4869 19.3588L24.8088 23.485L19.6685 18.3446L23.7908 8.6627ZM20.2166 27.6258C19.5902 28.2522 18.7573 28.5973 17.8714 28.5973C16.9855 28.5973 16.1525 28.2522 15.5261 27.6258C14.8996 26.9994 14.5546 26.1665 14.5546 25.2806C14.5546 24.3946 14.8996 23.5617 15.5261 22.9353L18.5115 19.9498L23.2019 24.6406L20.2166 27.6258ZM23.3512 27.2533L24.5828 26.0218L27.5057 28.9446L26.274 30.1762L23.3512 27.2533ZM6.83594 17.6409V25.5721L2.43721 21.1733L6.83594 17.6409ZM3.64561 47.6171C3.61797 47.6422 3.59248 47.6688 3.56836 47.6962C2.60869 47.1879 1.95312 46.1791 1.95312 45.0195V23.4515L15.4214 36.9196L3.64561 47.6171ZM6.07715 48.0469L9.30215 45.1172H16.4704C17.0098 45.1172 17.447 44.6799 17.447 44.1406C17.447 43.6014 17.0098 43.1641 16.4704 43.1641H11.4521L19.1177 36.2004C22.4712 33.154 27.5289 33.154 30.8824 36.2004L43.9229 48.0469H6.07715ZM48.0469 45.0195C48.0469 46.1791 47.3913 47.1879 46.4316 47.6962C46.4075 47.6688 46.382 47.6422 46.3544 47.6171L34.5787 36.9196L48.0469 23.4515V45.0195Z" fill="#F61067"/>
<path d="M42.9167 0.324512C42.5354 -0.0567383 41.917 -0.0567383 41.5357 0.324512L37.5907 4.26943C37.2094 4.65078 37.2094 5.26914 37.5907 5.65059C37.7814 5.84121 38.0313 5.93662 38.2813 5.93662C38.5312 5.93662 38.7812 5.84121 38.9718 5.65059L42.9167 1.70566C43.2981 1.32432 43.2981 0.705957 42.9167 0.324512Z" fill="#F61067"/>
<path d="M34.6105 0C34.0712 0 33.634 0.437305 33.634 0.976562V2.93818C33.634 3.47744 34.0712 3.91475 34.6105 3.91475C35.1499 3.91475 35.5871 3.47744 35.5871 2.93818V0.976562C35.5871 0.437305 35.1499 0 34.6105 0Z" fill="#F61067"/>
<path d="M42.2547 7.57031H40.2275C39.6881 7.57031 39.2509 8.00762 39.2509 8.54687C39.2509 9.08613 39.6881 9.52344 40.2275 9.52344H42.2547C42.7941 9.52344 43.2313 9.08613 43.2313 8.54687C43.2313 8.00762 42.7941 7.57031 42.2547 7.57031Z" fill="#F61067"/>
<path d="M21.165 43.4502C20.9824 43.2686 20.7314 43.1641 20.4746 43.1641C20.2168 43.1641 19.9658 43.2685 19.7832 43.4502C19.6015 43.6318 19.498 43.8838 19.498 44.1406C19.498 44.3975 19.6015 44.6494 19.7832 44.831C19.9658 45.0127 20.2177 45.1172 20.4746 45.1172C20.7314 45.1172 20.9824 45.0127 21.165 44.831C21.3466 44.6494 21.4511 44.3975 21.4511 44.1406C21.4511 43.8838 21.3466 43.6318 21.165 43.4502Z" fill="#F61067"/>
</svg>
