<svg width="50" height="50" viewBox="0 0 50 50" fill="none" xmlns="http://www.w3.org/2000/svg">
<path d="M49.6341 12.1476C49.6304 12.1445 49.6276 12.1417 49.6235 12.1385L46.4432 9.66182V0.976562C46.4432 0.437305 46.0059 0 45.4666 0H27.5804C27.0411 0 26.6038 0.437305 26.6038 0.976562V9.58447L23.4119 12.1476C23.4101 12.149 23.4087 12.1505 23.4069 12.152C23.3995 12.158 23.3925 12.1646 23.3853 12.1709C23.3815 12.1742 23.3775 12.1776 23.3742 12.181C23.1738 12.3598 23.0469 12.6192 23.0469 12.909V25.3581C23.0469 27.0453 24.4195 28.418 26.1067 28.418H42.7734V33.2073C42.744 33.2047 42.7144 33.2028 42.6842 33.2028H1.95312V10.2536H20.9135C21.4527 10.2536 21.89 9.81631 21.89 9.27705C21.89 8.73779 21.4527 8.30049 20.9135 8.30049H0.976562C0.437305 8.30049 0 8.73779 0 9.27705V39.8438C0 40.383 0.437305 40.8203 0.976562 40.8203H17.484V44.1402H13.673C13.1338 44.1402 12.6965 44.5775 12.6965 45.1168V49.0234C12.6965 49.5627 13.1338 50 13.673 50H31.0607C31.6 50 32.0373 49.5627 32.0373 49.0234V45.1168C32.0373 44.5775 31.6 44.1402 31.0607 44.1402H27.2497V40.8203H43.75C44.2893 40.8203 44.7266 40.383 44.7266 39.8438V28.4181H46.9401C48.6273 28.4181 50 27.0454 50 25.3582V12.909C50 12.601 49.8569 12.3266 49.6341 12.1476ZM30.0842 46.0934V48.0469H14.6496V46.0934H30.0842ZM19.4371 44.1402V40.8203H25.2965V44.1402H19.4371ZM42.7734 38.8672H1.95312V35.1561H42.6842C42.7144 35.1561 42.744 35.1542 42.7734 35.1516V38.8672ZM46.4431 12.1373L47.5511 13.0002L46.4431 14.1082V12.1373ZM28.5568 1.95312H44.4899V8.64102C44.3108 8.43291 44.0461 8.30059 43.75 8.30059H39.2912C38.752 8.30059 38.3146 8.73789 38.3146 9.27715C38.3146 9.81641 38.752 10.2537 39.2912 10.2537H39.9963C40.0189 10.4765 40.1188 10.688 40.2773 10.8466C40.459 11.0282 40.7109 11.1328 40.9678 11.1328C41.2246 11.1328 41.4766 11.0283 41.6582 10.8466C41.8167 10.6881 41.9165 10.4759 41.9393 10.2537H42.7734V17.7779L40.7389 19.8125L39.1934 18.4085C37.6713 17.0259 35.3756 17.0258 33.8535 18.4086L32.308 19.8125L28.5568 16.0613V1.95312ZM42.7734 20.5401V21.6608L42.1862 21.1273L42.7734 20.5401ZM26.6038 12.0895V14.1083L25.4841 12.9886L26.6038 12.0895ZM25.3335 26.1485C25.128 25.9475 25 25.6677 25 25.3582V15.2667L30.8607 21.1273L25.3335 26.1485ZM43.7727 26.4649C43.765 26.4647 43.7576 26.4638 43.75 26.4638C43.7424 26.4638 43.735 26.4647 43.7273 26.4649H27.8896L35.1667 19.8543C35.9402 19.1518 37.1065 19.1519 37.8801 19.8542L45.1572 26.4649H43.7727ZM48.0469 25.3582C48.0469 25.6677 47.9188 25.9475 47.7134 26.1485L44.7266 23.4352V18.587L48.0469 15.2667V25.3582Z" fill="#F61067"/>
<path d="M10.8759 22.9682L11.3848 24.1695C10.6959 24.7232 9.81172 25 8.73217 25C7.62177 25 6.717 24.6787 6.01786 24.036C5.33929 23.4032 5 22.5579 5 21.5C5 20.5113 5.33415 19.6808 6.00244 19.0085C6.67074 18.3362 7.56008 18 8.67048 18C9.58553 18 10.3618 18.2917 10.9992 18.875C11.6367 19.4583 11.9554 20.1999 11.9554 21.0996C11.9554 21.4951 11.9194 21.8016 11.8474 22.0191H6.83524C6.90721 22.5035 7.12826 22.8842 7.49839 23.161C7.87881 23.4379 8.35175 23.5763 8.91723 23.5763C9.68834 23.5763 10.3412 23.3736 10.8759 22.9682ZM8.59337 19.4237C7.58579 19.4237 6.97918 19.9082 6.77355 20.8771H10.1819C10.1921 20.452 10.0482 20.1059 9.75003 19.839C9.46215 19.5621 9.0766 19.4237 8.59337 19.4237Z" fill="#F61067"/>
<path d="M15.1574 24.8369H13.3839V18.1631H15.1574V18.8305C15.6715 18.3065 16.3347 18.0445 17.1469 18.0445C19.049 18.0445 20 19.0035 20 20.9216V24.8369H18.2264V21.2182C18.2264 20.1702 17.7072 19.6462 16.6688 19.6462C16.1033 19.6462 15.5995 19.8588 15.1574 20.2839V24.8369Z" fill="#F61067"/>
<path d="M40.9677 5.27344H32.1296C31.5904 5.27344 31.1531 5.71074 31.1531 6.25C31.1531 6.78926 31.5903 7.22656 32.1296 7.22656H40.9677C41.507 7.22656 41.9443 6.78926 41.9443 6.25C41.9443 5.71074 41.507 5.27344 40.9677 5.27344Z" fill="#F61067"/>
<path d="M37.2558 9.17969H32.1296C31.5904 9.17969 31.1531 9.61699 31.1531 10.1562C31.1531 10.6955 31.5903 11.1328 32.1296 11.1328H37.2558C37.7951 11.1328 38.2324 10.6955 38.2324 10.1562C38.2324 9.61699 37.7951 9.17969 37.2558 9.17969Z" fill="#F61067"/>
<path d="M40.9678 13.0859H35.6934C35.1541 13.0859 34.7168 13.5232 34.7168 14.0625C34.7168 14.6018 35.1541 15.0391 35.6934 15.0391H40.9678C41.507 15.0391 41.9443 14.6018 41.9443 14.0625C41.9443 13.5232 41.507 13.0859 40.9678 13.0859Z" fill="#F61067"/>
<path d="M32.1541 13.0859H32.1245C31.5852 13.0859 31.1479 13.5232 31.1479 14.0625C31.1479 14.6018 31.5852 15.0391 32.1245 15.0391H32.1541C32.6934 15.0391 33.1307 14.6018 33.1307 14.0625C33.1307 13.5232 32.6934 13.0859 32.1541 13.0859Z" fill="#F61067"/>
</svg>
