<svg width="50" height="50" viewBox="0 0 50 50" fill="none" xmlns="http://www.w3.org/2000/svg">
<path d="M46.6014 26.0993L43.1255 19.8075C43.1224 19.0436 43.105 16.7403 43.0697 16.2652C43.0687 16.2534 43.0676 16.2417 43.0663 16.2299L42.9157 14.8758C42.9145 14.8643 42.9131 14.853 42.9114 14.8417C42.233 10.2278 39.9245 6.40487 36.2356 3.78603C32.8024 1.34873 28.3266 0.039746 23.292 0.000585936C23.239 0.000195312 23.1873 0 23.1343 0C12.2251 0 3.26319 8.82508 3.12423 19.7443C3.01895 28.011 8.0001 35.4589 15.6019 38.5422L13.8496 46.7901C13.7931 47.0563 13.8501 47.334 14.007 47.5563C14.1639 47.7785 14.4066 47.9253 14.6764 47.961L29.9918 49.9914C30.0352 49.9972 30.0784 50 30.1209 50C30.5567 50 30.9472 49.7081 31.0631 49.2772L33.0809 41.7791C33.2262 41.7926 33.3873 41.8072 33.5613 41.8228C34.4629 41.9038 35.6013 42.0017 36.3973 42.0695C37.0846 42.1281 40.5221 42.4201 40.7026 42.4201C41.4503 42.4201 42.1373 42.1331 42.637 41.6121C43.116 41.1126 43.3662 40.4562 43.343 39.7615V29.6418L45.0067 29.3587C45.7181 29.2468 46.3319 28.795 46.65 28.1484C46.9695 27.4988 46.9515 26.7329 46.6014 26.0993ZM44.8976 27.2861C44.87 27.342 44.8138 27.4123 44.702 27.4294C44.6965 27.4302 44.6911 27.4312 44.6857 27.4321L42.2027 27.8546C41.7332 27.9345 41.39 28.3413 41.39 28.8173V39.7795C41.39 39.7932 41.3903 39.8069 41.3908 39.8205C41.3998 40.0337 41.307 40.1773 41.2274 40.2603C41.1035 40.3893 40.9248 40.4622 40.7225 40.4667C40.1662 40.432 33.1866 39.8446 32.5425 39.7637C32.4169 39.739 32.2861 39.7389 32.1565 39.7656C31.7954 39.8404 31.5071 40.112 31.4112 40.4682L29.3997 47.9427L15.9793 46.1635L17.4864 39.0699L24.2306 40.3868C24.2939 40.3992 24.3567 40.4052 24.4188 40.4052C24.8766 40.4052 25.2852 40.0817 25.3762 39.6156C25.4797 39.0864 25.1342 38.5734 24.6049 38.47L16.9947 36.984C9.76572 34.3743 4.97911 27.4654 5.07715 19.7691C5.20254 9.9157 13.289 1.95312 23.1345 1.95312C23.1816 1.95312 23.2297 1.95332 23.2767 1.95361C33.0058 2.02939 39.7864 7.06942 40.9765 15.1091L41.123 16.4259C41.1424 16.7224 41.1576 17.9023 41.1659 18.8479H39.0718C38.5326 18.8479 38.0952 19.2851 38.0952 19.8245C38.0952 20.3638 38.5326 20.801 39.0718 20.801H41.4431L44.8918 27.0437C44.9465 27.1426 44.9251 27.2301 44.8976 27.2861Z" fill="#F61067"/>
<path d="M29.2184 39.9754C29.2056 39.9129 29.1861 39.8514 29.1617 39.7928C29.1373 39.7333 29.108 39.6766 29.0729 39.6239C29.0368 39.5702 28.9958 39.5204 28.9509 39.4754C28.7243 39.2489 28.3873 39.1454 28.0699 39.2088C28.0074 39.2215 27.9459 39.2401 27.8873 39.2645C27.8278 39.2889 27.7712 39.3192 27.7184 39.3543C27.6647 39.3895 27.6148 39.4305 27.5699 39.4754C27.525 39.5204 27.484 39.5702 27.4488 39.6239C27.4138 39.6766 27.3834 39.7333 27.359 39.7928C27.3346 39.8514 27.3161 39.9129 27.3034 39.9754C27.2907 40.0379 27.2839 40.1024 27.2839 40.1659C27.2839 40.4237 27.3884 40.6747 27.57 40.8563C27.6149 40.9013 27.6648 40.9422 27.7185 40.9784C27.7713 41.0135 27.8279 41.0438 27.8874 41.0682C27.9461 41.0926 28.0075 41.1112 28.07 41.1239C28.1325 41.1366 28.197 41.1424 28.2604 41.1424C28.5173 41.1424 28.7692 41.0389 28.9509 40.8563C29.1324 40.6747 29.237 40.4237 29.237 40.1659C29.237 40.1024 29.2302 40.0379 29.2184 39.9754Z" fill="#F61067"/>
<path d="M34.343 18.6792C35.072 17.2914 35.4556 15.7407 35.4556 14.1684C35.4556 8.81835 31.1028 4.46582 25.7525 4.46582C23.741 4.46582 21.8114 5.07607 20.1721 6.23047C18.7436 7.23652 17.6274 8.58808 16.9141 10.1641C12.0561 10.6895 8.2616 14.8146 8.2616 19.8098C8.2616 21.3822 8.64519 22.9328 9.37419 24.3206L8.38826 28.0002C8.29793 28.3372 8.39431 28.6967 8.64099 28.9434C8.88747 29.1901 9.24704 29.2868 9.58415 29.1962L13.1588 28.239C14.6197 29.0738 16.2712 29.513 17.9623 29.513C17.9631 29.513 17.964 29.513 17.9647 29.513C21.8882 29.513 25.2751 27.172 26.8025 23.8133C28.1235 23.6702 29.4046 23.2562 30.5584 22.5976L34.133 23.5548C34.4706 23.6452 34.8297 23.5486 35.0762 23.302C35.3229 23.0553 35.4193 22.6958 35.3289 22.3588L34.343 18.6792ZM16.9453 20.8621H25.641C25.637 20.8914 25.634 20.9211 25.6297 20.9502C25.6251 20.9814 25.62 21.0126 25.615 21.0437C25.5995 21.1403 25.5825 21.2364 25.5634 21.3318C25.5584 21.3566 25.5534 21.3813 25.5482 21.4061C25.5264 21.5099 25.5026 21.6131 25.4766 21.7154C25.4726 21.7314 25.4687 21.7474 25.4645 21.7633C25.4346 21.8779 25.4025 21.9916 25.3675 22.1041C25.3664 22.1079 25.3653 22.1116 25.3641 22.1154C24.3803 25.2664 21.4352 27.5599 17.9644 27.5599C17.9637 27.5599 17.9632 27.5599 17.9625 27.5599C16.4954 27.5599 15.0658 27.1461 13.8286 26.3633C13.671 26.2635 13.4895 26.212 13.3064 26.212C13.2219 26.212 13.137 26.2229 13.0538 26.2452L10.7125 26.8721L11.3626 24.4458C11.4299 24.1945 11.3942 23.9269 11.2634 23.702C10.5773 22.5222 10.2146 21.1762 10.2146 19.8098C10.2146 15.5367 13.6913 12.0602 17.9645 12.0602C21.9328 12.0602 25.2121 15.059 25.6601 18.909H16.9453C16.4059 18.909 15.9687 19.3462 15.9687 19.8855C15.9687 20.4249 16.4059 20.8621 16.9453 20.8621ZM32.3545 18.8045L33.0046 21.2308L30.6633 20.6039C30.4 20.5333 30.119 20.576 29.8885 20.722C29.1468 21.1913 28.3304 21.5293 27.4787 21.7236C27.5549 21.3427 27.6079 20.9568 27.6379 20.5673C27.6383 20.5628 27.6387 20.5584 27.6391 20.5539C27.6445 20.483 27.6489 20.4119 27.6527 20.3408C27.6533 20.329 27.6542 20.3173 27.6548 20.3054C27.6581 20.2387 27.6605 20.1718 27.6624 20.1049C27.6629 20.089 27.6638 20.0733 27.6642 20.0574C27.6663 19.9751 27.6673 19.8925 27.6673 19.8099C27.6673 19.6638 27.6635 19.5185 27.6571 19.374C27.6565 19.3611 27.6562 19.3482 27.6556 19.3354C27.649 19.1979 27.6389 19.0613 27.6266 18.9254C27.6248 18.9063 27.6234 18.8872 27.6215 18.8681C27.6087 18.7358 27.593 18.6045 27.5749 18.4737C27.5719 18.4521 27.569 18.4306 27.5659 18.4092C27.5471 18.2798 27.5257 18.1512 27.5019 18.0236C27.4979 18.0024 27.4938 17.9813 27.4897 17.9602C27.4648 17.8318 27.4376 17.7042 27.4078 17.5776C27.4035 17.5594 27.3989 17.5414 27.3945 17.5232C27.363 17.3936 27.3294 17.2648 27.2929 17.1373C27.2896 17.1257 27.286 17.1142 27.2826 17.1026C27.2442 16.9707 27.2035 16.8397 27.1596 16.7101C27.1588 16.7077 27.158 16.7052 27.1573 16.7029C27.1133 16.5733 27.0662 16.4452 27.017 16.318C27.012 16.3049 27.0071 16.2916 27.002 16.2785C26.9545 16.1574 26.9043 16.0378 26.8522 15.9191C26.8443 15.9011 26.8365 15.883 26.8285 15.865C26.7769 15.7496 26.7229 15.6353 26.6669 15.5223C26.6572 15.5026 26.6474 15.4829 26.6375 15.4633C26.5812 15.3513 26.5229 15.2407 26.4624 15.1313C26.4519 15.1124 26.4413 15.0934 26.4307 15.0746C26.369 14.9646 26.3054 14.8559 26.2396 14.7487C26.2297 14.7326 26.2196 14.7168 26.2097 14.7008C26.1414 14.591 26.0714 14.4824 25.999 14.3756C25.9921 14.3655 25.985 14.3556 25.9782 14.3456C25.9038 14.237 25.8277 14.1298 25.7491 14.0244C25.7456 14.0199 25.7424 14.0152 25.7391 14.0106C25.6599 13.9048 25.5782 13.801 25.4949 13.6984C25.4849 13.6861 25.4751 13.6737 25.4651 13.6614C25.3848 13.5637 25.3023 13.4678 25.2184 13.3732C25.2044 13.3575 25.1907 13.3418 25.1766 13.3262C25.0938 13.2342 25.0092 13.1439 24.9231 13.0553C24.9072 13.0388 24.8912 13.0224 24.8751 13.0061C24.7887 12.9183 24.7006 12.8322 24.611 12.7477C24.5948 12.7324 24.5784 12.7174 24.5621 12.7021C24.4707 12.6173 24.378 12.534 24.2834 12.4526C24.269 12.4402 24.2543 12.428 24.2398 12.4157C24.1417 12.3324 24.0424 12.2506 23.9412 12.1712C23.932 12.1639 23.9225 12.1569 23.9132 12.1498C23.8105 12.0698 23.7063 11.9918 23.6003 11.916C23.5942 11.9115 23.588 11.9069 23.5819 11.9025C23.4751 11.8264 23.3665 11.7529 23.2565 11.6811C23.2422 11.6719 23.2282 11.6623 23.2138 11.653C23.1078 11.5846 23 11.5183 22.8912 11.454C22.8726 11.4431 22.8541 11.4319 22.8356 11.4211C22.7282 11.3585 22.6194 11.298 22.5095 11.2395C22.4892 11.2287 22.4688 11.218 22.4484 11.2072C22.338 11.1495 22.2266 11.0937 22.1138 11.0402C22.094 11.0307 22.074 11.0216 22.0541 11.0123C21.9391 10.9587 21.8231 10.9069 21.7058 10.8577C21.6891 10.8507 21.6723 10.844 21.6556 10.8371C21.5337 10.7868 21.411 10.7385 21.2867 10.6931C21.2773 10.6896 21.2678 10.6865 21.2584 10.6831C21.1328 10.6376 21.006 10.5946 20.878 10.5542C20.8703 10.5517 20.8626 10.5491 20.8548 10.5467C20.7269 10.5066 20.5976 10.4698 20.4674 10.4349C20.4508 10.4306 20.4344 10.4259 20.4178 10.4215C20.2918 10.3886 20.1648 10.3585 20.037 10.3306C20.0162 10.326 19.9956 10.3214 19.9748 10.317C19.8485 10.2903 19.7213 10.2662 19.5934 10.2444C19.5711 10.2406 19.5489 10.2369 19.5265 10.2333C19.3981 10.2124 19.2689 10.1939 19.1389 10.1782C19.1299 10.1771 19.121 10.1755 19.112 10.1744C20.4973 7.88368 23.0187 6.41884 25.7528 6.41884C30.0262 6.41884 33.5028 9.8953 33.5028 14.1683C33.5028 15.5348 33.1401 16.8807 32.4539 18.0606C32.3229 18.2855 32.2872 18.5532 32.3545 18.8045Z" fill="#F61067"/>
<path d="M14.0152 19.6948C14.0025 19.6331 13.9839 19.5716 13.9595 19.5121C13.9351 19.4535 13.9048 19.3968 13.8697 19.3441C13.8335 19.2904 13.7925 19.2406 13.7476 19.1956C13.5211 18.9681 13.1841 18.8646 12.8668 18.9281C12.8042 18.9408 12.7427 18.9593 12.6841 18.9837C12.6246 19.0081 12.5679 19.0384 12.5152 19.0737C12.4615 19.1098 12.4117 19.1498 12.3668 19.1957C12.3218 19.2407 12.2808 19.2905 12.2457 19.3442C12.2106 19.3969 12.1802 19.4536 12.1558 19.5121C12.1314 19.5717 12.1129 19.6332 12.1002 19.6948C12.0875 19.7582 12.0807 19.8227 12.0807 19.8862C12.0807 19.9496 12.0875 20.0141 12.1002 20.0766C12.1129 20.1391 12.1314 20.2006 12.1558 20.2592C12.1802 20.3188 12.2106 20.3754 12.2457 20.4282C12.2808 20.4819 12.3218 20.5317 12.3668 20.5766C12.4117 20.6215 12.4615 20.6625 12.5152 20.6977C12.5679 20.7328 12.6246 20.7631 12.6841 20.7875C12.7427 20.812 12.8043 20.8305 12.8668 20.8432C12.9293 20.8559 12.9937 20.8627 13.0572 20.8627C13.315 20.8627 13.566 20.7582 13.7475 20.5766C13.9301 20.395 14.0337 20.143 14.0337 19.8862C14.0337 19.8227 14.0278 19.7582 14.0152 19.6948Z" fill="#F61067"/>
</svg>
