<svg width="50" height="50" viewBox="0 0 50 50" fill="none" xmlns="http://www.w3.org/2000/svg">
<path d="M43.0664 27.8921V23.9235C43.0664 13.9423 34.9621 5.82178 25 5.82178C15.0379 5.82178 6.93359 13.9423 6.93359 23.9235V27.8921C3.04222 28.3049 0 31.6126 0 35.6194C0 39.9044 3.47939 43.3906 7.75604 43.3906H7.91016C7.94487 43.3906 7.97882 43.3887 8.01277 43.3852C8.60367 43.928 9.39064 44.2597 10.2539 44.2597C12.0846 44.2597 13.5742 42.7676 13.5742 40.9329V29.1912C13.5742 27.357 12.0846 25.8644 10.2539 25.8644C9.76677 25.8644 9.30405 25.9711 8.88672 26.1607V23.9235C8.88672 15.0213 16.1152 7.77872 25 7.77872C33.8848 7.77872 41.1133 15.0213 41.1133 23.9235V26.1607C40.696 25.9711 40.2332 25.8644 39.7461 25.8644C37.9154 25.8644 36.4258 27.357 36.4258 29.1912V40.9329C36.4258 42.7676 37.9154 44.2597 39.7461 44.2597C40.6094 44.2597 41.3963 43.928 41.9872 43.3852C42.0212 43.3887 42.0551 43.3906 42.0898 43.3906H42.244C46.5206 43.3906 50 39.9044 50 35.6194C50 31.6126 46.9578 28.3049 43.0664 27.8921ZM6.93359 41.3755C4.12178 40.9742 1.95312 38.5456 1.95312 35.6194C1.95312 32.6927 4.12178 30.2645 6.93359 29.8632V41.3755ZM10.2539 27.8214C11.0077 27.8214 11.6211 28.436 11.6211 29.1912V40.9329C11.6211 41.6882 11.0077 42.3028 10.2539 42.3028C9.50012 42.3028 8.88672 41.6882 8.88672 40.9329V29.1912C8.88672 28.436 9.50012 27.8214 10.2539 27.8214ZM39.7461 42.3028C38.9923 42.3028 38.3789 41.6882 38.3789 40.9329V29.1912C38.3789 28.436 38.9923 27.8214 39.7461 27.8214C40.4999 27.8214 41.1133 28.436 41.1133 29.1912V40.9329C41.1133 41.6882 40.4999 42.3028 39.7461 42.3028ZM43.0664 41.3755V29.8628C45.8782 30.2645 48.0469 32.6927 48.0469 35.619C48.0469 38.5456 45.8782 40.9742 43.0664 41.3755Z" fill="#F61067"/>
<path d="M17.1875 33.79C16.6481 33.79 16.2109 34.2281 16.2109 34.7685V40.118C16.2109 40.6585 16.6481 41.0965 17.1875 41.0965C17.7269 41.0965 18.1641 40.6585 18.1641 40.118V34.7685C18.1641 34.2281 17.7269 33.79 17.1875 33.79Z" fill="#F61067"/>
<path d="M17.1875 30.2026C16.9308 30.2026 16.6786 30.3074 16.497 30.4893C16.3155 30.6712 16.2109 30.9239 16.2109 31.1811C16.2109 31.4383 16.3155 31.691 16.497 31.8729C16.6786 32.0549 16.9308 32.1596 17.1875 32.1596C17.4442 32.1596 17.6964 32.0549 17.878 31.8729C18.0595 31.6898 18.1641 31.4383 18.1641 31.1811C18.1641 30.9239 18.0595 30.6712 17.878 30.4893C17.6964 30.3074 17.4442 30.2026 17.1875 30.2026Z" fill="#F61067"/>
<path d="M25 30.9854C24.4606 30.9854 24.0234 31.4234 24.0234 31.9638V40.1176C24.0234 40.6581 24.4606 41.0961 25 41.0961C25.5394 41.0961 25.9766 40.6581 25.9766 40.1176V31.9638C25.9766 31.4234 25.5394 30.9854 25 30.9854Z" fill="#F61067"/>
<path d="M32.8125 33.0728C32.2731 33.0728 31.8359 33.5108 31.8359 34.0512V38.0305C31.8359 38.5706 32.2731 39.009 32.8125 39.009C33.3519 39.009 33.7891 38.5706 33.7891 38.0305V34.0512C33.7891 33.5108 33.3519 33.0728 32.8125 33.0728Z" fill="#F61067"/>
<path d="M21.0938 27.6938C20.5544 27.6938 20.1172 28.1319 20.1172 28.6723V42.5666C20.1172 43.1071 20.5544 43.5451 21.0938 43.5451C21.6331 43.5451 22.0703 43.1071 22.0703 42.5666V28.6723C22.0703 28.1319 21.6331 27.6938 21.0938 27.6938Z" fill="#F61067"/>
<path d="M28.9062 41.4336C28.6495 41.4336 28.3974 41.5383 28.2158 41.7206C28.0342 41.9026 27.9297 42.1548 27.9297 42.4121C27.9297 42.6697 28.0342 42.9219 28.2158 43.1039C28.3974 43.2862 28.6495 43.3905 28.9062 43.3905C29.163 43.3905 29.4151 43.2862 29.5967 43.1039C29.7783 42.9219 29.8828 42.6697 29.8828 42.4121C29.8828 42.1548 29.7783 41.9026 29.5967 41.7206C29.4151 41.5387 29.163 41.4336 28.9062 41.4336Z" fill="#F61067"/>
<path d="M28.9062 30.1426C28.3669 30.1426 27.9297 30.5806 27.9297 31.1211V39.2042C27.9297 39.7446 28.3669 40.1826 28.9062 40.1826C29.4456 40.1826 29.8828 39.7446 29.8828 39.2042V31.1211C29.8828 30.5806 29.4456 30.1426 28.9062 30.1426Z" fill="#F61067"/>
</svg>
