<svg width="40" height="40" viewBox="0 0 40 40" fill="none" xmlns="http://www.w3.org/2000/svg">
<path fill-rule="evenodd" clip-rule="evenodd" d="M20 28C24.4183 28 28 24.4183 28 20C28 15.5817 24.4183 12 20 12C15.5817 12 12 15.5817 12 20C12 24.4183 15.5817 28 20 28ZM20 40C31.0457 40 40 31.0457 40 20C40 8.95431 31.0457 0 20 0C8.9543 0 0 8.95431 0 20C0 31.0457 8.9543 40 20 40Z" fill="#F61067"/>
<path fill-rule="evenodd" clip-rule="evenodd" d="M25 13.8C25 13.8 27.3696 16.3415 27.8 18.4C28.406 21.298 27.5926 23.7227 25.6786 25.6785C23.9012 27.4945 21.3003 28.3951 18.4 27.8C16.2346 27.3557 13.6 24.8 13.6 24.8L20 40C22.6265 40 25.2272 39.4827 27.6537 38.4776C29.2039 37.8354 30.6636 37.0023 32 36C32.7555 35.4334 33.4715 34.8128 34.1422 34.1421C34.8129 33.4714 35.4335 32.7554 36 32C37.0023 30.6636 37.8355 29.2039 38.4776 27.6536C39.4827 25.2271 40 22.6264 40 20L25 13.8Z" fill="#DB135F"/>
</svg>
